<svg viewBox="-960 -439 1920 878" width="1920" height="878" style="background-color: rgb(255, 255, 255);" xmlns="http://www.w3.org/2000/svg"><path d="M398.19121700641915,166.58768869103181L378.07965480101774,164.32763688139636M378.07965480101774,-272.9622028374705L378.07965480101774,164.32763688139636M378.07965480101774,164.32763688139636L246.98745311777682,343.2045855011135M398.19121700641915,-270.70215102783504L398.19121700641915,166.58768869103181M398.19121700641915,166.58768869103181L267.09901532317826,345.46463731074897M314.8514978457502,136.91554997101994L213.33963550995603,125.50807869512575M213.33963550995603,-238.90012107059667L213.33963550995603,125.50807869512575M213.33963550995603,125.50807869512575L104.0961341072553,274.57220254489005M314.8514978457502,-227.49264979470246L314.8514978457502,136.91554997101994M314.8514978457502,136.91554997101994L205.60799644304947,285.9796738207842" style="fill:none;stroke:rgb(0,0,0);stroke-width:1;stroke-linecap:round"></path><path d="M398.19121700641915,166.58768869103181L378.07965480101774,164.32763688139636L378.07965480101774,-272.9622028374705zM314.8514978457502,136.91554997101994L213.33963550995605,125.50807869512575L213.33963550995605,-238.90012107059667z" style="fill:rgb(255,255,255); fill-opacity: 0.4"></path><path d="M139.18712648437915,76.5615839762639L50.36425068161905,66.58004703026087M50.36425068161905,-152.06487282917257L50.36425068161905,66.58004703026087M50.36425068161905,66.58004703026087L-15.181850160001398,156.01852134011946M139.18712648437915,-142.08333588316953L139.18712648437915,76.5615839762639M139.18712648437915,76.5615839762639L73.6410256427587,166.00005828612248M-162.9626872228606,145.39353506880713L-175.65167001483488,143.96760115932037M-175.65167001483488,-183.9997786298298L-175.65167001483488,143.96760115932037M-175.65167001483488,143.96760115932037L-176.02692013894688,144.47963464650303M-176.02692013894688,-183.48774514264713L-176.02692013894688,144.47963464650303M-176.02692013894688,144.47963464650303L-163.3379373469726,145.9055685559898" style="fill:none;stroke:rgb(0,0,0);stroke-width:1;stroke-linecap:round"></path><path d="M-176.02692013894685,144.479634646503L-175.65167001483488,143.96760115932037L-162.9626872228606,145.39353506880713zM-163.33793734697258,145.9055685559898L-176.02692013894685,144.479634646503L-162.9626872228606,145.39353506880713z" style="fill:rgb(255,255,255); fill-opacity: 0.4"></path><path d="M-162.9626872228606,-182.57384472034303L-162.9626872228606,145.39353506880713M-162.9626872228606,145.39353506880713L-163.3379373469726,145.9055685559898M-163.3379373469726,-182.06181123316037L-163.3379373469726,145.9055685559898" style="fill:none;stroke:rgb(0,0,0);stroke-width:1;stroke-linecap:round"></path><path d="M139.18712648437915,76.5615839762639L50.36425068161905,66.58004703026087L50.36425068161905,-152.06487282917257zM398.19121700641915,-270.70215102783504L398.19121700641915,166.58768869103181L378.07965480101774,-272.9622028374705zM314.8514978457502,-227.49264979470246L314.8514978457502,136.91554997101994L213.33963550995605,-238.90012107059667zM104.09613410725531,274.57220254489005L213.33963550995605,125.50807869512575L314.8514978457502,136.91554997101994zM246.98745311777688,343.2045855011135L378.07965480101774,164.32763688139636L398.19121700641915,166.58768869103181zM-175.65167001483488,143.96760115932037L-176.02692013894685,144.479634646503L-176.02692013894685,-183.48774514264716z" style="fill:rgb(255,255,255); fill-opacity: 0.4"></path><path d="M-26.055267437604076,13.164758179153312L-102.18916169540985,4.609155002502258M-102.18916169540985,-53.14817595412524L-102.18916169540985,4.609155002502258M-102.18916169540985,4.609155002502258L-119.5038463524319,28.235258752323517" style="fill:none;stroke:rgb(0,0,0);stroke-width:1;stroke-linecap:round"></path><path d="M139.18712648437915,-142.08333588316953L139.18712648437915,76.5615839762639L50.36425068161905,-152.06487282917257zM-162.9626872228606,145.39353506880713L-175.65167001483488,143.96760115932037L-175.65167001483488,-183.9997786298298zM-15.181850160001398,156.01852134011946L50.36425068161905,66.58004703026087L139.18712648437915,76.5615839762639zM-176.02692013894685,144.479634646503L-163.33793734697258,145.9055685559898L-163.33793734697258,-182.06181123316037zM-163.33793734697258,145.9055685559898L-162.9626872228606,145.39353506880713L-162.9626872228606,-182.57384472034303z" style="fill:rgb(255,255,255); fill-opacity: 0.4"></path><path d="M314.8514978457502,-227.49264979470246L213.33963550995603,-238.90012107059667M213.33963550995603,-238.90012107059667L104.0961341072553,-89.83599722083234" style="fill:none;stroke:rgb(0,0,0);stroke-width:1;stroke-linecap:round"></path><path d="M-26.055267437604073,13.164758179153313L-102.18916169540985,4.609155002502258L-102.18916169540985,-53.14817595412524z" style="fill:rgb(255,255,255); fill-opacity: 0.4"></path><path d="M139.18712648437915,-142.08333588316953L50.36425068161905,-152.06487282917257M50.36425068161905,-152.06487282917257L-15.181850160001398,-62.62639851931398M-26.055267437604076,-44.59257277747419L-26.055267437604076,13.164758179153312M-26.055267437604076,13.164758179153312L-43.369952094626136,36.79086192897458M-26.055267437604076,-44.59257277747419L-102.18916169540985,-53.14817595412524M-102.18916169540985,-53.14817595412524L-119.5038463524319,-29.52207220430398" style="fill:none;stroke:rgb(0,0,0);stroke-width:1;stroke-linecap:round"></path><path d="M-119.5038463524319,28.235258752323517L-102.18916169540985,4.609155002502258L-26.055267437604073,13.164758179153313z" style="fill:rgb(255,255,255); fill-opacity: 0.4"></path><path d="M-35.093157375897825,25.393428013340227L-111.2270516337036,16.837824836689173M-111.2270516337036,1.8169710082752255L-111.2270516337036,16.837824836689173M-111.2270516337036,16.837824836689173L-115.73005312304728,22.982226682880885" style="fill:none;stroke:rgb(0,0,0);stroke-width:1;stroke-linecap:round"></path><path d="M-26.055267437604073,-44.592572777474196L-26.055267437604073,13.164758179153313L-102.18916169540985,-53.14817595412524z" style="fill:rgb(255,255,255); fill-opacity: 0.4"></path><path d="M398.19121700641915,-270.70215102783504L378.07965480101774,-272.9622028374705M378.07965480101774,-272.9622028374705L246.98745311777682,-94.08525421775336" style="fill:none;stroke:rgb(0,0,0);stroke-width:1;stroke-linecap:round"></path><path d="M-102.18916169540985,-53.14817595412524L-102.18916169540985,4.609155002502258L-119.5038463524319,-29.52207220430399z" style="fill:rgb(255,255,255); fill-opacity: 0.4"></path><path d="M-35.093157375897825,10.37257418492628L-111.2270516337036,1.8169710082752255M-111.2270516337036,1.8169710082752255L-115.73005312304728,7.961372854466938" style="fill:none;stroke:rgb(0,0,0);stroke-width:1;stroke-linecap:round"></path><path d="M-35.09315737589783,25.393428013340227L-111.2270516337036,16.837824836689176L-111.2270516337036,1.8169710082752282zM-111.2270516337036,1.8169710082752282L-111.2270516337036,16.837824836689176L-115.7300531230473,7.961372854466941z" style="fill:rgb(179,187,255); fill-opacity: 0.4"></path><path d="M139.18712648437915,-142.08333588316953L73.6410256427587,-52.644861573310955M398.19121700641915,-270.70215102783504L267.09901532317826,-91.8252024081179M314.8514978457502,-227.49264979470246L205.60799644304947,-78.42852594493816" style="fill:none;stroke:rgb(0,0,0);stroke-width:1;stroke-linecap:round"></path><path d="M-115.73005312304728,22.982226682880892L-111.2270516337036,16.837824836689176L-35.09315737589783,25.393428013340227zM-111.2270516337036,16.837824836689176L-115.73005312304728,22.982226682880892L-115.7300531230473,7.961372854466941z" style="fill:rgb(179,187,255); fill-opacity: 0.4"></path><path d="M-115.73005312304728,7.961372854466938L-115.73005312304728,22.982226682880885M-115.73005312304728,22.982226682880885L-39.59615886524152,31.537829859531943M-26.055267437604076,-44.59257277747419L-43.369952094626136,-20.96646902765293" style="fill:none;stroke:rgb(0,0,0);stroke-width:1;stroke-linecap:round"></path><path d="M-102.18916169540985,4.609155002502258L-119.5038463524319,28.235258752323517L-119.5038463524319,-29.52207220430399zM-175.65167001483488,-183.9997786298298L-175.65167001483488,143.96760115932037L-176.02692013894685,-183.48774514264716z" style="fill:rgb(255,255,255); fill-opacity: 0.4"></path><path d="M-35.09315737589783,10.372574184926284L-35.09315737589783,25.393428013340227L-111.2270516337036,1.8169710082752282z" style="fill:rgb(179,187,255); fill-opacity: 0.4"></path><path d="M-43.369952094626136,36.79086192897457L-26.055267437604073,13.164758179153313L-26.055267437604073,-44.592572777474196zM73.6410256427587,166.00005828612248L139.18712648437915,76.5615839762639L139.18712648437915,-142.08333588316953zM-162.9626872228606,-182.57384472034303L-162.9626872228606,145.39353506880713L-175.65167001483488,-183.9997786298298zM-176.02692013894685,-183.48774514264716L-176.02692013894685,144.479634646503L-163.33793734697258,-182.06181123316037z" style="fill:rgb(255,255,255); fill-opacity: 0.4"></path><path d="M-35.093157375897825,10.37257418492628L-35.093157375897825,25.393428013340227M-35.093157375897825,25.393428013340227L-39.59615886524152,31.537829859531943M-35.09315577078672,10.372574613868466L-35.09315577078672,25.393428442282417M-35.09315577078672,25.393428442282417L-39.59615726013041,31.537830288474126M-35.09315577078672,25.393428442282417L7.627373014074362,96.07137739292892" style="fill:none;stroke:rgb(0,0,0);stroke-width:1;stroke-linecap:round"></path><path d="M-163.33793734697258,-182.06181123316037L-163.33793734697258,145.9055685559898L-162.9626872228606,-182.57384472034303z" style="fill:rgb(255,255,255); fill-opacity: 0.4"></path><path d="M-115.73005312304728,7.961372854466938L-39.59615886524152,16.51697603111799" style="fill:none;stroke:rgb(0,0,0);stroke-width:1;stroke-linecap:round"></path><path d="M-43.369952094626136,36.79086192897457L-119.5038463524319,28.235258752323517L-26.055267437604073,13.164758179153313z" style="fill:rgb(255,255,255); fill-opacity: 0.4"></path><path d="M-115.7300531230473,7.961372854466941L-39.59615886524153,16.516976031117995L-111.2270516337036,1.8169710082752282zM-39.59615886524153,31.537829859531943L-115.73005312304728,22.982226682880892L-35.09315737589783,25.393428013340227z" style="fill:rgb(179,187,255); fill-opacity: 0.4"></path><path d="M114.2587314562829,-6.461517508543431L25.435855653522804,-16.443054454546463M25.435855653522804,-31.463908282960407L25.435855653522804,-16.443054454546463M25.435855653522804,-16.443054454546463L20.932854164179112,-10.29865260835475" style="fill:none;stroke:rgb(0,0,0);stroke-width:1;stroke-linecap:round"></path><path d="M-39.59615886524153,16.516976031117995L-35.09315737589783,10.372574184926284L-111.2270516337036,1.8169710082752282z" style="fill:rgb(179,187,255); fill-opacity: 0.4"></path><path d="M205.60799644304944,285.9796738207842L314.8514978457502,136.91554997101994L314.8514978457502,-227.49264979470246z" style="fill:rgb(255,255,255); fill-opacity: 0.4"></path><path d="M-115.7300531230473,7.961372854466941L-115.73005312304728,22.982226682880892L-39.59615886524153,16.516976031117995z" style="fill:rgb(179,187,255); fill-opacity: 0.4"></path><path d="M50.36425068161905,-152.06487282917257L50.36425068161905,66.58004703026087L-15.181850160001398,-62.62639851931398z" style="fill:rgb(255,255,255); fill-opacity: 0.4"></path><path d="M-162.39981203669265,-99.45421586213448L-175.08879482866695,-100.88014977162125M-175.08879482866695,-110.89405232389721L-175.08879482866695,-100.88014977162125M-175.08879482866695,-100.88014977162125L-176.58979532511484,-98.83201582289067M-119.5038463524319,-29.52207220430398L-119.5038463524319,28.235258752323517M-119.5038463524319,28.235258752323517L-43.369952094626136,36.79086192897458M-35.093157375897825,10.37257418492628L-39.59615886524152,16.51697603111799M-35.09315577078672,10.372574613868466L-39.59615726013041,16.516976460060178M-35.09315577078672,10.372574613868466L7.627373014074362,96.07137739292892" style="fill:none;stroke:rgb(0,0,0);stroke-width:1;stroke-linecap:round"></path><path d="M-39.59615886524153,31.537829859531943L-35.09315737589783,25.393428013340227L-35.09315737589783,10.372574184926284z" style="fill:rgb(179,187,255); fill-opacity: 0.4"></path><path d="M-35.093156233479604,10.372574313306385L-35.093156233479604,25.393428141720328L-39.5961577228233,31.537829987912044z" style="fill:rgb(254,118,118); fill-opacity: 0.4"></path><path d="M267.09901532317826,345.46463731074897L398.19121700641915,166.58768869103181L398.19121700641915,-270.70215102783504zM-43.369952094626136,-20.96646902765293L-26.055267437604073,-44.592572777474196L-102.18916169540985,-53.14817595412524z" style="fill:rgb(255,255,255); fill-opacity: 0.4"></path><path d="M-162.39981203669265,-99.45421586213448L-175.08879482866692,-100.88014977162123L-175.08879482866692,-110.89405232389721zM-176.5897953251148,-98.83201582289068L-175.08879482866692,-100.88014977162123L-162.39981203669265,-99.45421586213448z" style="fill:rgb(179,187,255); fill-opacity: 0.4"></path><path d="M-162.39981203669265,-109.46811841441044L-162.39981203669265,-99.45421586213448M-162.39981203669265,-99.45421586213448L-163.90081253314054,-97.4060819134039M-162.39981178990556,-109.46811484663066L-162.39981178990556,-99.45421706935552M-162.39981178990556,-99.45421706935552L-163.90081228635344,-97.40608312062496M-162.39981178990556,-99.45421706935552L-116.25084768751023,-20.069387686655215M114.2587314562829,-21.482371336957378L25.435855653522804,-31.463908282960407M25.435855653522804,-31.463908282960407L20.932854164179112,-25.319506436768698" style="fill:none;stroke:rgb(0,0,0);stroke-width:1;stroke-linecap:round"></path><path d="M-35.093156233479604,25.393428141720328L-35.093156233479604,10.372574313306385L7.627372794329144,96.07138125577468z" style="fill:rgb(254,118,118); fill-opacity: 0.4"></path><path d="M-162.39981203669265,-109.46811841441044L-175.08879482866695,-110.89405232389721M-175.08879482866695,-110.89405232389721L-176.58979532511484,-108.84591837516663" style="fill:none;stroke:rgb(0,0,0);stroke-width:1;stroke-linecap:round"></path><path d="M-115.73005312304728,22.982226682880892L-39.59615886524153,31.537829859531943L-39.59615886524153,16.516976031117995zM-175.08879482866692,-110.89405232389721L-175.08879482866692,-100.88014977162123L-176.5897953251148,-108.84591837516665zM-175.08879482866692,-100.88014977162123L-176.5897953251148,-98.83201582289068L-176.5897953251148,-108.84591837516665z" style="fill:rgb(179,187,255); fill-opacity: 0.4"></path><path d="M-176.58979532511484,-108.84591837516663L-176.58979532511484,-98.83201582289067M-176.58979532511484,-98.83201582289067L-163.90081253314054,-97.4060819134039" style="fill:none;stroke:rgb(0,0,0);stroke-width:1;stroke-linecap:round"></path><path d="M-162.39981203669265,-109.46811841441044L-162.39981203669265,-99.45421586213448L-175.08879482866692,-110.89405232389721zM-163.90081253314054,-97.40608191340391L-176.5897953251148,-98.83201582289068L-162.39981203669265,-99.45421586213448z" style="fill:rgb(179,187,255); fill-opacity: 0.4"></path><path d="M-162.39981205412627,-109.46811841636955L-162.39981205412627,-99.45421586409357L-163.9008125505742,-97.40608191536302z" style="fill:rgb(254,118,118); fill-opacity: 0.4"></path><path d="M-163.90081253314054,-97.40608191340391L-162.39981203669265,-99.45421586213448L-162.39981203669265,-109.46811841441044zM25.43585565352281,-31.463908282960418L25.43585565352281,-16.443054454546463L20.932854164179115,-25.319506436768705z" style="fill:rgb(179,187,255); fill-opacity: 0.4"></path><path d="M-162.39981205412627,-99.45421586409357L-162.39981205412627,-109.46811841636955L-116.25084782354587,-20.06938820968257zM-39.5961577228233,31.537829987912044L-35.093156233479604,25.393428141720328L7.627372794329144,96.07138125577468zM-163.9008125505742,-97.40608191536302L-162.39981205412627,-99.45421586409357L-116.25084782354587,-20.06938820968257z" style="fill:rgb(254,118,118); fill-opacity: 0.4"></path><path d="M114.2587314562829,-6.461517508543428L25.43585565352281,-16.443054454546463L25.43585565352281,-31.463908282960418z" style="fill:rgb(179,187,255); fill-opacity: 0.4"></path><path d="M-162.39981178990556,-109.46811484663066L-163.90081228635344,-107.41998089790009M-162.39981178990556,-109.46811484663066L-116.25084768751023,-20.069387686655215M-162.39981203669265,-109.46811841441044L-163.90081253314054,-107.41998446567986" style="fill:none;stroke:rgb(0,0,0);stroke-width:1;stroke-linecap:round"></path><path d="M-163.90081253314054,-107.41998446567987L-162.39981203669265,-109.46811841441044L-175.08879482866692,-110.89405232389721z" style="fill:rgb(179,187,255); fill-opacity: 0.4"></path><path d="M-163.90081253314054,-107.41998446567986L-163.90081253314054,-97.4060819134039M-163.90081228635344,-97.40608312062496L-163.90081228635344,-107.41998089790009M-163.90081228635344,-97.40608312062496L-116.25084768751023,-20.069387686655215" style="fill:none;stroke:rgb(0,0,0);stroke-width:1;stroke-linecap:round"></path><path d="M-39.59615886524153,16.516976031117995L-39.59615886524153,31.537829859531943L-35.09315737589783,10.372574184926284z" style="fill:rgb(179,187,255); fill-opacity: 0.4"></path><path d="M-35.093156233479604,10.372574313306385L-39.5961577228233,31.537829987912044L-39.5961577228233,16.516976159498096z" style="fill:rgb(254,118,118); fill-opacity: 0.4"></path><path d="M-176.5897953251148,-98.83201582289068L-163.90081253314054,-97.40608191340391L-163.90081253314054,-107.41998446567987zM-176.5897953251148,-108.84591837516665L-163.90081253314054,-107.41998446567987L-175.08879482866692,-110.89405232389721zM-176.5897953251148,-108.84591837516665L-176.5897953251148,-98.83201582289068L-163.90081253314054,-107.41998446567987z" style="fill:rgb(179,187,255); fill-opacity: 0.4"></path><path d="M-39.59615886524152,16.51697603111799L-39.59615886524152,31.537829859531943M-39.59615726013041,31.537830288474126L-39.59615726013041,16.516976460060178M-39.59615726013041,31.537830288474126L7.627373014074362,96.07137739292892M-176.58979532511484,-108.84591837516663L-163.90081253314054,-107.41998446567986M-163.90081228635344,-107.41998089790009L-116.25084768751023,-20.069387686655215" style="fill:none;stroke:rgb(0,0,0);stroke-width:1;stroke-linecap:round"></path><path d="M25.43585565352281,-16.443054454546463L20.932854164179115,-10.298652608354748L20.932854164179115,-25.319506436768705z" style="fill:rgb(179,187,255); fill-opacity: 0.4"></path><path d="M-162.39981205412627,-109.46811841636955L-163.9008125505742,-97.40608191536302L-163.9008125505742,-107.41998446763898z" style="fill:rgb(254,118,118); fill-opacity: 0.4"></path><path d="M-163.90081253314054,-107.41998446567987L-163.90081253314054,-97.40608191340391L-162.39981203669265,-109.46811841441044z" style="fill:rgb(179,187,255); fill-opacity: 0.4"></path><path d="M-162.39981205412627,-109.46811841636955L-163.9008125505742,-107.41998446763898L-116.25084782354587,-20.06938820968257zM-163.9008125505742,-107.41998446763898L-163.9008125505742,-97.40608191536302L-116.25084782354587,-20.06938820968257z" style="fill:rgb(254,118,118); fill-opacity: 0.4"></path><path d="M20.932854164179115,-10.298652608354748L25.43585565352281,-16.443054454546463L114.2587314562829,-6.461517508543428z" style="fill:rgb(179,187,255); fill-opacity: 0.4"></path><path d="M-35.093156233479604,10.372574313306385L-39.5961577228233,16.516976159498096L7.627372794329144,96.07138125577468z" style="fill:rgb(254,118,118); fill-opacity: 0.4"></path><path d="M20.932854164179112,-25.319506436768698L20.932854164179112,-10.29865260835475M20.932854164179112,-10.29865260835475L109.75572996693921,-0.3171156623517192" style="fill:none;stroke:rgb(0,0,0);stroke-width:1;stroke-linecap:round"></path><path d="M-119.5038463524319,-29.52207220430399L-43.369952094626136,-20.96646902765293L-102.18916169540985,-53.14817595412524z" style="fill:rgb(255,255,255); fill-opacity: 0.4"></path><path d="M-39.5961577228233,16.516976159498096L-39.5961577228233,31.537829987912044L7.627372794329144,96.07138125577468z" style="fill:rgb(254,118,118); fill-opacity: 0.4"></path><path d="M-39.59615726013041,16.516976460060178L7.627373014074362,96.07137739292892" style="fill:none;stroke:rgb(0,0,0);stroke-width:1;stroke-linecap:round"></path><path d="M114.2587314562829,-21.482371336957385L114.2587314562829,-6.461517508543428L25.43585565352281,-31.463908282960418z" style="fill:rgb(179,187,255); fill-opacity: 0.4"></path><path d="M20.932854164179112,-25.319506436768698L109.75572996693921,-15.337969490765667" style="fill:none;stroke:rgb(0,0,0);stroke-width:1;stroke-linecap:round"></path><path d="M-43.369952094626136,-20.96646902765293L-43.369952094626136,36.79086192897457L-26.055267437604073,-44.592572777474196z" style="fill:rgb(255,255,255); fill-opacity: 0.4"></path><path d="M114.25873291752538,-21.482370383327083L114.25873291752538,-6.461517748663341M114.25873291752538,-6.461517748663341L109.75573107031529,-0.3171154141584426M114.25873291752538,-6.461517748663341L168.03980899716385,-20.260801176116658M114.2587314562829,-21.482371336957378L114.2587314562829,-6.461517508543431M114.2587314562829,-6.461517508543431L109.75572996693921,-0.3171156623517192M-43.369952094626136,-20.96646902765293L-43.369952094626136,36.79086192897458" style="fill:none;stroke:rgb(0,0,0);stroke-width:1;stroke-linecap:round"></path><path d="M20.932854164179115,-25.319506436768705L109.75572996693921,-15.33796949076567L25.43585565352281,-31.463908282960418z" style="fill:rgb(179,187,255); fill-opacity: 0.4"></path><path d="M-119.5038463524319,28.235258752323517L-43.369952094626136,36.79086192897457L-43.369952094626136,-20.96646902765293z" style="fill:rgb(255,255,255); fill-opacity: 0.4"></path><path d="M109.75572996693921,-0.31711566235171645L20.932854164179115,-10.298652608354748L114.2587314562829,-6.461517508543428z" style="fill:rgb(179,187,255); fill-opacity: 0.4"></path><path d="M73.6410256427587,166.00005828612248L-15.181850160001398,156.01852134011946L139.18712648437915,76.5615839762639zM-119.5038463524319,-29.52207220430399L-119.5038463524319,28.235258752323517L-43.369952094626136,-20.96646902765293z" style="fill:rgb(255,255,255); fill-opacity: 0.4"></path><path d="M20.932854164179115,-25.319506436768705L20.932854164179115,-10.298652608354748L109.75572996693921,-15.33796949076567z" style="fill:rgb(179,187,255); fill-opacity: 0.4"></path><path d="M213.33963550995605,-238.90012107059667L213.33963550995605,125.50807869512575L104.09613410725531,-89.83599722083234z" style="fill:rgb(255,255,255); fill-opacity: 0.4"></path><path d="M109.75572996693921,-15.33796949076567L114.2587314562829,-21.482371336957385L25.43585565352281,-31.463908282960418z" style="fill:rgb(179,187,255); fill-opacity: 0.4"></path><path d="M-119.5038463524319,-29.52207220430398L-43.369952094626136,-20.96646902765293M114.25873291752538,-21.482370383327083L109.75573107031529,-15.337968048822184M114.25873291752538,-21.482370383327083L168.03980899716385,-20.260801176116658M114.2587314562829,-21.482371336957378L109.75572996693921,-15.337969490765667" style="fill:none;stroke:rgb(0,0,0);stroke-width:1;stroke-linecap:round"></path><path d="M109.75572996693921,-0.31711566235171645L114.2587314562829,-6.461517508543428L114.2587314562829,-21.482371336957385z" style="fill:rgb(179,187,255); fill-opacity: 0.4"></path><path d="M114.25873320477747,-21.482371140469002L114.25873320477747,-6.461517312055046L109.75573171543378,-0.31711546586333456zM114.25873320477747,-6.461517312055046L114.25873320477747,-21.482371140469002L168.03980936147818,-20.260800415732078z" style="fill:rgb(254,118,118); fill-opacity: 0.4"></path><path d="M20.932854164179115,-10.298652608354748L109.75572996693921,-0.31711566235171645L109.75572996693921,-15.33796949076567z" style="fill:rgb(179,187,255); fill-opacity: 0.4"></path><path d="M109.75573171543378,-0.31711546586333456L114.25873320477747,-6.461517312055046L168.03980936147818,-20.260800415732078z" style="fill:rgb(254,118,118); fill-opacity: 0.4"></path><path d="M109.75572996693921,-15.33796949076567L109.75572996693921,-0.31711566235171645L114.2587314562829,-21.482371336957385z" style="fill:rgb(179,187,255); fill-opacity: 0.4"></path><path d="M114.25873320477747,-21.482371140469002L109.75573171543378,-0.31711546586333456L109.75573171543378,-15.337969294277288z" style="fill:rgb(254,118,118); fill-opacity: 0.4"></path><path d="M109.75572996693921,-15.337969490765667L109.75572996693921,-0.3171156623517192M109.75573107031529,-0.3171154141584426L109.75573107031529,-15.337968048822184M109.75573107031529,-0.3171154141584426L168.03980899716385,-20.260801176116658" style="fill:none;stroke:rgb(0,0,0);stroke-width:1;stroke-linecap:round"></path><path d="M114.25873320477747,-21.482371140469002L109.75573171543378,-15.337969294277288L168.03980936147818,-20.260800415732078z" style="fill:rgb(254,118,118); fill-opacity: 0.4"></path><path d="M-162.9626872228606,-182.57384472034303L-175.65167001483488,-183.9997786298298M-175.65167001483488,-183.9997786298298L-176.02692013894688,-183.48774514264713M109.75573107031529,-15.337968048822184L168.03980899716385,-20.260801176116658" style="fill:none;stroke:rgb(0,0,0);stroke-width:1;stroke-linecap:round"></path><path d="M109.75573171543378,-15.337969294277288L109.75573171543378,-0.31711546586333456L168.03980936147818,-20.260800415732078z" style="fill:rgb(254,118,118); fill-opacity: 0.4"></path><path d="M-176.02692013894688,-183.48774514264713L-163.3379373469726,-182.06181123316037" style="fill:none;stroke:rgb(0,0,0);stroke-width:1;stroke-linecap:round"></path><path d="M50.36425068161905,66.58004703026087L-15.181850160001398,156.01852134011946L-15.181850160001398,-62.62639851931398zM-176.02692013894685,-183.48774514264716L-163.33793734697258,-182.06181123316037L-175.65167001483488,-183.9997786298298zM-163.33793734697258,-182.06181123316037L-162.9626872228606,-182.57384472034303L-175.65167001483488,-183.9997786298298z" style="fill:rgb(255,255,255); fill-opacity: 0.4"></path><path d="M-162.9626872228606,-182.57384472034303L-163.3379373469726,-182.06181123316037" style="fill:none;stroke:rgb(0,0,0);stroke-width:1;stroke-linecap:round"></path><path d="M73.6410256427587,-52.644861573310955L139.18712648437915,-142.08333588316953L50.36425068161905,-152.06487282917257zM205.60799644304944,285.9796738207842L104.09613410725531,274.57220254489005L314.8514978457502,136.91554997101994zM378.07965480101774,-272.9622028374705L378.07965480101774,164.32763688139636L246.98745311777688,-94.08525421775335zM267.09901532317826,345.46463731074897L246.98745311777688,343.2045855011135L398.19121700641915,166.58768869103181z" style="fill:rgb(255,255,255); fill-opacity: 0.4"></path><path d="M-15.181850160001398,-62.62639851931398L-15.181850160001398,156.01852134011946M-15.181850160001398,156.01852134011946L73.6410256427587,166.00005828612248" style="fill:none;stroke:rgb(0,0,0);stroke-width:1;stroke-linecap:round"></path><path d="M213.33963550995605,125.50807869512575L104.09613410725531,274.57220254489005L104.09613410725531,-89.83599722083234z" style="fill:rgb(255,255,255); fill-opacity: 0.4"></path><path d="M265.7324833565234,-97.75380589390907L164.22062102072925,-109.16127716980327M164.22062102072925,-124.18213099821723L164.22062102072925,-109.16127716980327M164.22062102072925,-109.16127716980327L159.71761953138557,-103.01687532361156" style="fill:none;stroke:rgb(0,0,0);stroke-width:1;stroke-linecap:round"></path><path d="M73.6410256427587,-52.644861573310955L73.6410256427587,166.00005828612248L139.18712648437915,-142.08333588316953zM205.60799644304944,-78.42852594493816L314.8514978457502,-227.49264979470246L213.33963550995605,-238.90012107059667z" style="fill:rgb(255,255,255); fill-opacity: 0.4"></path><path d="M265.7324833565234,-112.77465972232301L164.22062102072925,-124.18213099821723M164.22062102072925,-124.18213099821723L159.71761953138557,-118.0377291520255" style="fill:none;stroke:rgb(0,0,0);stroke-width:1;stroke-linecap:round"></path><path d="M164.22062102072925,-124.18213099821723L164.22062102072925,-109.16127716980327L159.71761953138557,-118.03772915202552zM265.7324833565234,-97.75380589390907L164.22062102072925,-109.16127716980327L164.22062102072925,-124.18213099821723z" style="fill:rgb(179,187,255); fill-opacity: 0.4"></path><path d="M73.6410256427587,-52.644861573310955L73.6410256427587,166.00005828612248" style="fill:none;stroke:rgb(0,0,0);stroke-width:1;stroke-linecap:round"></path><path d="M164.22062102072925,-109.16127716980327L159.71761953138557,-103.01687532361157L159.71761953138557,-118.03772915202552zM159.71761953138557,-103.01687532361157L164.22062102072925,-109.16127716980327L265.7324833565234,-97.75380589390907z" style="fill:rgb(179,187,255); fill-opacity: 0.4"></path><path d="M159.71761953138557,-118.0377291520255L159.71761953138557,-103.01687532361156M159.71761953138557,-103.01687532361156L261.22948186717974,-91.60940404771736" style="fill:none;stroke:rgb(0,0,0);stroke-width:1;stroke-linecap:round"></path><path d="M-15.181850160001398,-62.62639851931398L73.6410256427587,-52.644861573310955L50.36425068161905,-152.06487282917257z" style="fill:rgb(255,255,255); fill-opacity: 0.4"></path><path d="M159.71761953138557,-118.0377291520255L261.22948186717974,-106.63025787613131" style="fill:none;stroke:rgb(0,0,0);stroke-width:1;stroke-linecap:round"></path><path d="M265.7324833565234,-112.77465972232301L265.7324833565234,-97.75380589390907L164.22062102072925,-124.18213099821723zM159.71761953138557,-118.03772915202552L261.22948186717974,-106.63025787613132L164.22062102072925,-124.18213099821723z" style="fill:rgb(179,187,255); fill-opacity: 0.4"></path><path d="M265.7324833565234,-112.77465972232301L265.7324833565234,-97.75380589390907M265.7324833565234,-97.75380589390907L261.22948186717974,-91.60940404771736M265.732493094781,-112.7746547323883L265.732493094781,-97.75380090397434M265.732493094781,-97.75380090397434L261.22949142650407,-91.60939881362604M265.732493094781,-97.75380090397434L316.4350463237483,-122.60146087665554" style="fill:none;stroke:rgb(0,0,0);stroke-width:1;stroke-linecap:round"></path><path d="M261.22948186717974,-91.60940404771738L159.71761953138557,-103.01687532361157L265.7324833565234,-97.75380589390907zM159.71761953138557,-118.03772915202552L159.71761953138557,-103.01687532361157L261.22948186717974,-106.63025787613132zM261.22948186717974,-106.63025787613132L265.7324833565234,-112.77465972232301L164.22062102072925,-124.18213099821723z" style="fill:rgb(179,187,255); fill-opacity: 0.4"></path><path d="M265.7324833565234,-112.77465972232301L261.22948186717974,-106.63025787613131M265.732493094781,-112.7746547323883L261.22949142650407,-106.63025264204M265.732493094781,-112.7746547323883L316.4350463237483,-122.60146087665554" style="fill:none;stroke:rgb(0,0,0);stroke-width:1;stroke-linecap:round"></path><path d="M265.7324832170545,-112.77465973799595L265.7324832170545,-97.753805909582L261.2294817277108,-91.60940406339029z" style="fill:rgb(254,118,118); fill-opacity: 0.4"></path><path d="M261.22948186717974,-91.60940404771738L265.7324833565234,-97.75380589390907L265.7324833565234,-112.77465972232301z" style="fill:rgb(179,187,255); fill-opacity: 0.4"></path><path d="M267.09901532317826,-91.8252024081179L398.19121700641915,-270.70215102783504L378.07965480101774,-272.9622028374705z" style="fill:rgb(255,255,255); fill-opacity: 0.4"></path><path d="M159.71761953138557,-103.01687532361157L261.22948186717974,-91.60940404771738L261.22948186717974,-106.63025787613132z" style="fill:rgb(179,187,255); fill-opacity: 0.4"></path><path d="M-15.181850160001398,156.01852134011946L73.6410256427587,166.00005828612248L73.6410256427587,-52.644861573310955z" style="fill:rgb(255,255,255); fill-opacity: 0.4"></path><path d="M265.7324832170545,-97.753805909582L265.7324832170545,-112.77465973799595L316.4350367018841,-122.60146132545059zM265.7324832170545,-112.77465973799595L261.2294817277108,-91.60940406339029L261.2294817277108,-106.63025789180425z" style="fill:rgb(254,118,118); fill-opacity: 0.4"></path><path d="M261.22948186717974,-106.63025787613132L261.22948186717974,-91.60940404771738L265.7324833565234,-112.77465972232301z" style="fill:rgb(179,187,255); fill-opacity: 0.4"></path><path d="M261.22948186717974,-106.63025787613131L261.22948186717974,-91.60940404771736M261.22949142650407,-91.60939881362604L261.22949142650407,-106.63025264204M261.22949142650407,-91.60939881362604L316.4350463237483,-122.60146087665554" style="fill:none;stroke:rgb(0,0,0);stroke-width:1;stroke-linecap:round"></path><path d="M261.2294817277108,-91.60940406339029L265.7324832170545,-97.753805909582L316.4350367018841,-122.60146132545059z" style="fill:rgb(254,118,118); fill-opacity: 0.4"></path><path d="M378.07965480101774,164.32763688139636L246.98745311777688,343.2045855011135L246.98745311777688,-94.08525421775335z" style="fill:rgb(255,255,255); fill-opacity: 0.4"></path><path d="M265.7324832170545,-112.77465973799595L261.2294817277108,-106.63025789180425L316.4350367018841,-122.60146132545059z" style="fill:rgb(254,118,118); fill-opacity: 0.4"></path><path d="M261.22949142650407,-106.63025264204L316.4350463237483,-122.60146087665554" style="fill:none;stroke:rgb(0,0,0);stroke-width:1;stroke-linecap:round"></path><path d="M261.2294817277108,-106.63025789180425L261.2294817277108,-91.60940406339029L316.4350367018841,-122.60146132545059z" style="fill:rgb(254,118,118); fill-opacity: 0.4"></path><path d="M-15.181850160001398,-62.62639851931398L-15.181850160001398,156.01852134011946L73.6410256427587,-52.644861573310955z" style="fill:rgb(255,255,255); fill-opacity: 0.4"></path><path d="M104.0961341072553,-89.83599722083234L104.0961341072553,274.57220254489005M104.0961341072553,274.57220254489005L205.60799644304947,285.9796738207842" style="fill:none;stroke:rgb(0,0,0);stroke-width:1;stroke-linecap:round"></path><path d="M205.60799644304944,-78.42852594493816L205.60799644304944,285.9796738207842L314.8514978457502,-227.49264979470246z" style="fill:rgb(255,255,255); fill-opacity: 0.4"></path><path d="M-15.181850160001398,-62.62639851931398L73.6410256427587,-52.644861573310955M205.60799644304947,-78.42852594493816L205.60799644304947,285.9796738207842" style="fill:none;stroke:rgb(0,0,0);stroke-width:1;stroke-linecap:round"></path><path d="M104.09613410725531,-89.83599722083234L205.60799644304944,-78.42852594493816L213.33963550995605,-238.90012107059667zM267.09901532317826,-91.8252024081179L267.09901532317826,345.46463731074897L398.19121700641915,-270.70215102783504z" style="fill:rgb(255,255,255); fill-opacity: 0.4"></path><path d="M246.98745311777682,-94.08525421775336L246.98745311777682,343.2045855011135M246.98745311777682,343.2045855011135L267.09901532317826,345.46463731074897M267.09901532317826,-91.8252024081179L267.09901532317826,345.46463731074897" style="fill:none;stroke:rgb(0,0,0);stroke-width:1;stroke-linecap:round"></path><path d="M104.09613410725531,274.57220254489005L205.60799644304944,285.9796738207842L205.60799644304944,-78.42852594493816zM246.98745311777688,-94.08525421775335L267.09901532317826,-91.8252024081179L378.07965480101774,-272.9622028374705zM104.09613410725531,-89.83599722083234L104.09613410725531,274.57220254489005L205.60799644304944,-78.42852594493816zM246.98745311777688,343.2045855011135L267.09901532317826,345.46463731074897L267.09901532317826,-91.8252024081179z" style="fill:rgb(255,255,255); fill-opacity: 0.4"></path><path d="M104.0961341072553,-89.83599722083234L205.60799644304947,-78.42852594493816" style="fill:none;stroke:rgb(0,0,0);stroke-width:1;stroke-linecap:round"></path><path d="M246.98745311777688,-94.08525421775335L246.98745311777688,343.2045855011135L267.09901532317826,-91.8252024081179z" style="fill:rgb(255,255,255); fill-opacity: 0.4"></path><path d="M246.98745311777682,-94.08525421775336L267.09901532317826,-91.8252024081179" style="fill:none;stroke:rgb(0,0,0);stroke-width:1;stroke-linecap:round"></path></svg>