<svg viewBox="-960 -439 1920 878" width="1920" height="878" style="background-color: rgb(255, 255, 255);" xmlns="http://www.w3.org/2000/svg"><path d="M-136.48570139315035,73.85150376305697L-151.13819839999746,72.05123748003572M-151.13819839999746,-250.36770156577046L-151.13819839999746,72.05123748003572M-151.13819839999746,72.05123748003572L-257.34969506056456,200.17919231197044M-136.48570139315035,-248.56743528274922L-136.48570139315035,73.85150376305697M-136.48570139315035,73.85150376305697L-242.6971980537174,201.97945859499168" style="fill:none;stroke:rgb(0,0,0);stroke-width:1;stroke-linecap:round"></path><path d="M-136.48570139315032,73.85150376305695L-151.13819839999744,72.05123748003572L-151.13819839999746,-250.3677015657704z" style="fill:rgb(255,255,255); fill-opacity: 0.4"></path><path d="M-33.27258362852503,71.42924348426286L-107.23015310242835,62.34251112486696M-107.23015310242835,-206.3399380799715L-107.23015310242835,62.34251112486696M-107.23015310242835,62.34251112486696L-195.7397336529009,169.1158068181459M-33.27258362852503,-197.2532057205756L-33.27258362852503,71.42924348426286M-33.27258362852503,71.42924348426286L-121.78216417899758,178.20253917754178" style="fill:none;stroke:rgb(0,0,0);stroke-width:1;stroke-linecap:round"></path><path d="M-136.48570139315035,-248.56743528274922L-136.48570139315032,73.85150376305695L-151.13819839999746,-250.3677015657704zM-33.272583628525034,71.42924348426286L-107.23015310242835,62.34251112486696L-107.23015310242836,-206.33993807997146zM-257.34969506056456,200.17919231197047L-151.13819839999744,72.05123748003572L-136.48570139315032,73.85150376305695z" style="fill:rgb(255,255,255); fill-opacity: 0.4"></path><path d="M-136.48570139315035,-248.56743528274922L-151.13819839999746,-250.36770156577046M-151.13819839999746,-250.36770156577046L-257.34969506056456,-122.23974673383572M-136.48570139315035,-248.56743528274922L-242.69719805371744,-120.43948045081447" style="fill:none;stroke:rgb(0,0,0);stroke-width:1;stroke-linecap:round"></path><path d="M-33.27258362852505,-197.25320572057558L-33.272583628525034,71.42924348426286L-107.23015310242836,-206.33993807997146zM-195.7397336529009,169.11580681814593L-107.23015310242835,62.34251112486696L-33.272583628525034,71.42924348426286zM-242.6971980537174,201.9794585949917L-136.48570139315032,73.85150376305695L-136.48570139315035,-248.56743528274922z" style="fill:rgb(255,255,255); fill-opacity: 0.4"></path><path d="M51.84487857737642,51.68022614727665L-12.867991986699236,43.729335667682456M-12.867991986699241,-117.48013385522063L-12.867991986699236,43.729335667682456M-12.867991986699236,43.729335667682456L-65.97374031698277,107.7933130836498M-33.27258362852503,-197.2532057205756L-107.23015310242835,-206.3399380799715M-107.23015310242835,-206.3399380799715L-195.7397336529009,-99.56664238669255M439.61489654510774,144.63360196870542L424.9623995382606,142.83333568568418M424.9623995382606,-179.585603360122L424.9623995382606,142.83333568568418M424.9623995382606,142.83333568568418L318.7509028776936,270.9612905176189M378.00493513744414,121.96049762156224L304.04736566354086,112.87376526216634M304.04736566354086,-155.80868394267208L304.04736566354086,112.87376526216634M304.04736566354086,112.87376526216634L215.53778511306828,219.6470609554453M439.61489654510774,-177.78533707710076L439.61489654510774,144.63360196870542M439.61489654510774,144.63360196870542L333.40339988454065,272.76155680064016M-192.5787034090062,111.77992054799441L-207.23120041585332,109.97965426497316M-207.23120041585332,98.90460217130247L-207.23120041585332,109.97965426497316M-207.23120041585332,109.97965426497316L-210.8795526557799,114.38083422859052" style="fill:none;stroke:rgb(0,0,0);stroke-width:1;stroke-linecap:round"></path><path d="M-192.5787034090062,111.77992054799444L-207.23120041585332,109.97965426497319L-207.23120041585332,98.90460217130247z" style="fill:rgb(179,187,255); fill-opacity: 0.4"></path><path d="M51.84487857737642,-109.52924337562644L51.84487857737642,51.68022614727665M51.84487857737642,51.68022614727665L-1.2608697529071133,115.74420356324401M-192.57870941431773,100.70487386625624L-192.57870941431773,111.77992595992693M-192.57870941431773,111.77992595992693L-196.22706194418927,116.18110627331863M-192.57870941431773,111.77992595992693L-155.49447404844864,91.16874483630171M-192.5787034090062,100.7048684543237L-192.5787034090062,111.77992054799441M-192.5787034090062,111.77992054799441L-196.22705564893275,116.18110051161176M-192.5787034090062,100.7048684543237L-207.23120041585332,98.90460217130247M-207.23120041585332,98.90460217130247L-210.8795526557799,103.30578213491981" style="fill:none;stroke:rgb(0,0,0);stroke-width:1;stroke-linecap:round"></path><path d="M-210.8795526557799,114.38083422859052L-207.23120041585332,109.97965426497319L-192.5787034090062,111.77992054799444zM-192.5787034090062,100.70486845432372L-192.5787034090062,111.77992054799444L-207.23120041585332,98.90460217130247zM-207.23120041585332,98.90460217130247L-207.23120041585332,109.97965426497319L-210.8795526557799,103.3057821349198zM-207.23120041585332,109.97965426497319L-210.8795526557799,114.38083422859052L-210.8795526557799,103.3057821349198z" style="fill:rgb(179,187,255); fill-opacity: 0.4"></path><path d="M-192.57870941431773,100.70487386625624L-196.22706194418927,105.10605417964793M-192.57870941431773,100.70487386625624L-155.49447404844864,91.16874483630171M-192.5787034090062,100.7048684543237L-196.22705564893275,105.10604841794105" style="fill:none;stroke:rgb(0,0,0);stroke-width:1;stroke-linecap:round"></path><path d="M-192.57870354127255,100.70486843807292L-192.57870354127255,111.77992053174363L-196.2270557811991,116.18110049536097z" style="fill:rgb(254,118,118); fill-opacity: 0.4"></path><path d="M-196.22705564893275,116.18110051161176L-192.5787034090062,111.77992054799444L-192.5787034090062,100.70486845432372zM-196.22705564893275,116.18110051161176L-210.8795526557799,114.38083422859052L-192.5787034090062,111.77992054799444z" style="fill:rgb(179,187,255); fill-opacity: 0.4"></path><path d="M-210.8795526557799,103.30578213491981L-210.8795526557799,114.38083422859052M-210.8795526557799,114.38083422859052L-196.22705564893275,116.18110051161176" style="fill:none;stroke:rgb(0,0,0);stroke-width:1;stroke-linecap:round"></path><path d="M-196.22705564893275,105.10604841794104L-192.5787034090062,100.70486845432372L-207.23120041585332,98.90460217130247z" style="fill:rgb(179,187,255); fill-opacity: 0.4"></path><path d="M-33.27258362852503,-197.2532057205756L-121.78216417899758,-90.47991002729665" style="fill:none;stroke:rgb(0,0,0);stroke-width:1;stroke-linecap:round"></path><path d="M-210.8795526557799,103.3057821349198L-196.22705564893275,105.10604841794104L-207.23120041585332,98.90460217130247z" style="fill:rgb(179,187,255); fill-opacity: 0.4"></path><path d="M51.84487857737642,51.68022614727665L-12.867991986699238,43.729335667682456L-12.867991986699245,-117.48013385522061z" style="fill:rgb(255,255,255); fill-opacity: 0.4"></path><path d="M-192.57870354127255,111.77992053174363L-192.57870354127255,100.70486843807292L-155.49446811399935,91.16874507061038zM-192.57870354127255,100.70486843807292L-196.2270557811991,116.18110049536097L-196.2270557811991,105.10604840169024z" style="fill:rgb(254,118,118); fill-opacity: 0.4"></path><path d="M-196.22705564893275,105.10604841794104L-196.22705564893275,116.18110051161176L-192.5787034090062,100.70486845432372z" style="fill:rgb(179,187,255); fill-opacity: 0.4"></path><path d="M-196.22706194418927,116.18110627331863L-196.22706194418927,105.10605417964793M-196.22706194418927,116.18110627331863L-155.49447404844864,91.16874483630171M-196.22705564893275,105.10604841794105L-196.22705564893275,116.18110051161176" style="fill:none;stroke:rgb(0,0,0);stroke-width:1;stroke-linecap:round"></path><path d="M-210.8795526557799,114.38083422859052L-196.22705564893275,116.18110051161176L-196.22705564893275,105.10604841794104zM-210.8795526557799,103.3057821349198L-210.8795526557799,114.38083422859052L-196.22705564893275,105.10604841794104z" style="fill:rgb(179,187,255); fill-opacity: 0.4"></path><path d="M-210.8795526557799,103.30578213491981L-196.22705564893275,105.10604841794105" style="fill:none;stroke:rgb(0,0,0);stroke-width:1;stroke-linecap:round"></path><path d="M-196.2270557811991,116.18110049536097L-192.57870354127255,111.77992053174363L-155.49446811399935,91.16874507061038z" style="fill:rgb(254,118,118); fill-opacity: 0.4"></path><path d="M-151.13819839999746,-250.3677015657704L-151.13819839999744,72.05123748003572L-257.34969506056456,-122.23974673383572z" style="fill:rgb(255,255,255); fill-opacity: 0.4"></path><path d="M-192.57870354127255,100.70486843807292L-196.2270557811991,105.10604840169024L-155.49446811399935,91.16874507061038z" style="fill:rgb(254,118,118); fill-opacity: 0.4"></path><path d="M-196.22706194418927,105.10605417964793L-155.49447404844864,91.16874483630171M378.00493513744414,-146.72195158327622L378.00493513744414,121.96049762156224M378.00493513744414,121.96049762156224L289.4953545869716,228.7337933148412" style="fill:none;stroke:rgb(0,0,0);stroke-width:1;stroke-linecap:round"></path><path d="M-196.2270557811991,105.10604840169024L-196.2270557811991,116.18110049536097L-155.49446811399935,91.16874507061038z" style="fill:rgb(254,118,118); fill-opacity: 0.4"></path><path d="M-121.78216417899758,178.2025391775418L-33.272583628525034,71.42924348426286L-33.27258362852505,-197.25320572057558z" style="fill:rgb(255,255,255); fill-opacity: 0.4"></path><path d="M-76.54055455062064,67.94969531915162L-150.49812402452397,58.86296295975572M-150.49812402452397,47.78791086608502L-150.49812402452397,58.86296295975572M-150.49812402452397,58.86296295975572L-154.14647626445054,63.264142923373065M-76.54055455062064,56.87464322548091L-150.49812402452397,47.78791086608502M-150.49812402452397,47.78791086608502L-154.14647626445054,52.189090829702366" style="fill:none;stroke:rgb(0,0,0);stroke-width:1;stroke-linecap:round"></path><path d="M-150.49812402452397,47.78791086608503L-150.49812402452397,58.86296295975572L-154.14647626445054,52.18909082970237z" style="fill:rgb(179,187,255); fill-opacity: 0.4"></path><path d="M-242.6971980537174,201.9794585949917L-257.34969506056456,200.17919231197047L-136.48570139315032,73.85150376305695z" style="fill:rgb(255,255,255); fill-opacity: 0.4"></path><path d="M-150.49812402452397,58.86296295975572L-154.14647626445054,63.264142923373065L-154.14647626445054,52.18909082970237zM-76.54055455062066,67.9496953191516L-150.49812402452397,58.86296295975572L-150.49812402452397,47.78791086608503z" style="fill:rgb(179,187,255); fill-opacity: 0.4"></path><path d="M47.954421846863795,-37.9657913733705L-16.758448717211856,-45.91668185296469M-16.758448717211856,-56.9917339466354L-16.758448717211856,-45.91668185296469M-16.758448717211856,-45.91668185296469L-20.406800957138415,-41.51550188934735M-154.14647626445054,52.189090829702366L-154.14647626445054,63.264142923373065M-154.14647626445054,63.264142923373065L-80.1889067905472,72.35087528276895" style="fill:none;stroke:rgb(0,0,0);stroke-width:1;stroke-linecap:round"></path><path d="M-154.14647626445054,63.264142923373065L-150.49812402452397,58.86296295975572L-76.54055455062066,67.9496953191516z" style="fill:rgb(179,187,255); fill-opacity: 0.4"></path><path d="M-107.23015310242836,-206.33993807997146L-107.23015310242835,62.34251112486696L-195.7397336529009,-99.56664238669255z" style="fill:rgb(255,255,255); fill-opacity: 0.4"></path><path d="M47.954421846863795,-49.0408434670412L-16.758448717211856,-56.9917339466354M-16.758448717211856,-56.9917339466354L-20.406800957138415,-52.59055398301805M-154.14647626445054,52.189090829702366L-80.1889067905472,61.275823189098254" style="fill:none;stroke:rgb(0,0,0);stroke-width:1;stroke-linecap:round"></path><path d="M439.61489654510774,144.63360196870542L424.9623995382606,142.83333568568418L424.9623995382606,-179.58560336012198z" style="fill:rgb(255,255,255); fill-opacity: 0.4"></path><path d="M-16.758448717211856,-56.9917339466354L-16.758448717211856,-45.9166818529647L-20.40680095713842,-52.590553983018054z" style="fill:rgb(179,187,255); fill-opacity: 0.4"></path><path d="M51.84487857737641,-109.52924337562644L51.84487857737642,51.68022614727665L-12.867991986699245,-117.48013385522061zM-65.97374031698277,107.7933130836498L-12.867991986699238,43.729335667682456L51.84487857737642,51.68022614727665z" style="fill:rgb(255,255,255); fill-opacity: 0.4"></path><path d="M248.23894180152598,75.81001167412296L183.52607123745034,67.85912119452877M183.52607123745034,-93.35034832837432L183.52607123745034,67.85912119452877M183.52607123745034,67.85912119452877L130.42032290716682,131.92309861049614" style="fill:none;stroke:rgb(0,0,0);stroke-width:1;stroke-linecap:round"></path><path d="M47.9544218468638,-37.9657913733705L-16.758448717211856,-45.9166818529647L-16.758448717211856,-56.9917339466354z" style="fill:rgb(179,187,255); fill-opacity: 0.4"></path><path d="M378.0049351374441,121.96049762156224L304.04736566354086,112.87376526216634L304.0473656635408,-155.8086839426721z" style="fill:rgb(255,255,255); fill-opacity: 0.4"></path><path d="M-16.758448717211856,-45.9166818529647L-20.40680095713842,-41.515501889347355L-20.40680095713842,-52.590553983018054zM-76.54055455062066,56.874643225480916L-76.54055455062066,67.9496953191516L-150.49812402452397,47.78791086608503zM-20.40680095713842,-41.515501889347355L-16.758448717211856,-45.9166818529647L47.9544218468638,-37.9657913733705zM-154.14647626445054,52.18909082970237L-80.18890679054721,61.27582318909827L-150.49812402452397,47.78791086608503z" style="fill:rgb(179,187,255); fill-opacity: 0.4"></path><path d="M-20.406800957138415,-52.59055398301805L-20.406800957138415,-41.51550188934735M-20.406800957138415,-41.51550188934735L44.306069606937236,-33.564611409753155" style="fill:none;stroke:rgb(0,0,0);stroke-width:1;stroke-linecap:round"></path><path d="M-154.14647626445054,52.18909082970237L-154.14647626445054,63.264142923373065L-80.18890679054721,61.27582318909827zM-80.18890679054721,72.35087528276895L-154.14647626445054,63.264142923373065L-76.54055455062066,67.9496953191516z" style="fill:rgb(179,187,255); fill-opacity: 0.4"></path><path d="M-76.54055455062064,56.87464322548091L-76.54055455062064,67.94969531915162M-76.54055455062064,67.94969531915162L-80.1889067905472,72.35087528276895M-76.54055313500379,56.87464336664248L-76.54055313500379,67.94969546031318M-76.54055313500379,67.94969546031318L-80.18890537493034,72.35087542393053M-76.54055313500379,67.94969546031318L-39.923279967507106,39.63944654823658" style="fill:none;stroke:rgb(0,0,0);stroke-width:1;stroke-linecap:round"></path><path d="M-80.18890679054721,61.27582318909827L-76.54055455062066,56.874643225480916L-150.49812402452397,47.78791086608503z" style="fill:rgb(179,187,255); fill-opacity: 0.4"></path><path d="M-20.406800957138415,-52.59055398301805L44.306069606937236,-44.63966350342386" style="fill:none;stroke:rgb(0,0,0);stroke-width:1;stroke-linecap:round"></path><path d="M47.9544218468638,-49.0408434670412L47.9544218468638,-37.9657913733705L-16.758448717211856,-56.9917339466354z" style="fill:rgb(179,187,255); fill-opacity: 0.4"></path><path d="M51.84487857737642,-109.52924337562644L-12.867991986699241,-117.48013385522063M-12.867991986699241,-117.48013385522063L-65.97374031698277,-53.416156439253264M-76.54055455062064,56.87464322548091L-80.1889067905472,61.275823189098254M-76.54055313500379,56.87464336664248L-80.18890537493034,61.27582333025983M-76.54055313500379,56.87464336664248L-39.923279967507106,39.63944654823658" style="fill:none;stroke:rgb(0,0,0);stroke-width:1;stroke-linecap:round"></path><path d="M-154.14647626445054,63.264142923373065L-80.18890679054721,72.35087528276895L-80.18890679054721,61.27582318909827z" style="fill:rgb(179,187,255); fill-opacity: 0.4"></path><path d="M-76.54055465223226,56.87464321299649L-76.54055465223226,67.9496953066672L-80.18890689215883,72.35087527028453z" style="fill:rgb(254,118,118); fill-opacity: 0.4"></path><path d="M-80.18890679054721,72.35087528276895L-76.54055455062066,67.9496953191516L-76.54055455062066,56.874643225480916zM-20.40680095713842,-52.590553983018054L44.30606960693724,-44.63966350342386L-16.758448717211856,-56.9917339466354z" style="fill:rgb(179,187,255); fill-opacity: 0.4"></path><path d="M47.95442433750176,-49.040843799278804L47.95442433750176,-37.965791705608105M47.95442433750176,-37.965791705608105L44.3060720975752,-33.56461174199077M47.95442433750176,-37.965791705608105L68.90314984521127,-3.9420162549290922M47.954421846863795,-49.0408434670412L47.954421846863795,-37.9657913733705M47.954421846863795,-37.9657913733705L44.306069606937236,-33.564611409753155" style="fill:none;stroke:rgb(0,0,0);stroke-width:1;stroke-linecap:round"></path><path d="M44.30606960693724,-33.56461140975316L-20.40680095713842,-41.515501889347355L47.9544218468638,-37.9657913733705zM-20.40680095713842,-52.590553983018054L-20.40680095713842,-41.515501889347355L44.30606960693724,-44.63966350342386zM44.30606960693724,-44.63966350342386L47.9544218468638,-49.0408434670412L-16.758448717211856,-56.9917339466354z" style="fill:rgb(179,187,255); fill-opacity: 0.4"></path><path d="M-76.54055465223226,56.87464321299649L-80.18890689215883,72.35087527028453L-80.18890689215883,61.27582317661384z" style="fill:rgb(254,118,118); fill-opacity: 0.4"></path><path d="M-80.18890679054721,61.27582318909827L-80.18890679054721,72.35087528276895L-76.54055455062066,56.874643225480916z" style="fill:rgb(179,187,255); fill-opacity: 0.4"></path><path d="M-80.1889067905472,61.275823189098254L-80.1889067905472,72.35087528276895M-80.18890537493034,72.35087542393053L-80.18890537493034,61.27582333025983M-80.18890537493034,72.35087542393053L-39.923279967507106,39.63944654823658M47.95442433750176,-49.040843799278804L44.3060720975752,-44.639663835661466M47.95442433750176,-49.040843799278804L68.90314984521127,-3.9420162549290922M47.954421846863795,-49.0408434670412L44.306069606937236,-44.63966350342386" style="fill:none;stroke:rgb(0,0,0);stroke-width:1;stroke-linecap:round"></path><path d="M44.30606960693724,-33.56461140975316L47.9544218468638,-37.9657913733705L47.9544218468638,-49.0408434670412z" style="fill:rgb(179,187,255); fill-opacity: 0.4"></path><path d="M47.954423120748515,-49.04084331052646L47.954423120748515,-37.96579121685576L44.30607088082195,-33.56461125323842zM-76.54055465223226,67.9496953066672L-76.54055465223226,56.87464321299649L-39.9232814858193,39.639444973084956z" style="fill:rgb(254,118,118); fill-opacity: 0.4"></path><path d="M-20.40680095713842,-41.515501889347355L44.30606960693724,-33.56461140975316L44.30606960693724,-44.63966350342386z" style="fill:rgb(179,187,255); fill-opacity: 0.4"></path><path d="M248.23894180152598,-85.39945784878013L248.23894180152598,75.81001167412296M248.23894180152598,75.81001167412296L195.13319347124246,139.87398909009033" style="fill:none;stroke:rgb(0,0,0);stroke-width:1;stroke-linecap:round"></path><path d="M-80.18890689215883,72.35087527028453L-76.54055465223226,67.9496953066672L-39.9232814858193,39.639444973084956z" style="fill:rgb(254,118,118); fill-opacity: 0.4"></path><path d="M-121.78216417899758,178.2025391775418L-195.7397336529009,169.11580681814593L-33.272583628525034,71.42924348426286z" style="fill:rgb(255,255,255); fill-opacity: 0.4"></path><path d="M-80.18890537493034,61.27582333025983L-39.923279967507106,39.63944654823658" style="fill:none;stroke:rgb(0,0,0);stroke-width:1;stroke-linecap:round"></path><path d="M44.30606960693724,-44.63966350342386L44.30606960693724,-33.56461140975316L47.9544218468638,-49.0408434670412z" style="fill:rgb(179,187,255); fill-opacity: 0.4"></path><path d="M47.954423120748515,-49.04084331052646L44.30607088082195,-33.56461125323842L44.30607088082195,-44.63966334690912zM-76.54055465223226,56.87464321299649L-80.18890689215883,61.27582317661384L-39.9232814858193,39.639444973084956z" style="fill:rgb(254,118,118); fill-opacity: 0.4"></path><path d="M44.3060720975752,-33.56461174199077L44.3060720975752,-44.639663835661466M44.3060720975752,-33.56461174199077L68.90314984521127,-3.9420162549290922M44.306069606937236,-44.63966350342386L44.306069606937236,-33.564611409753155" style="fill:none;stroke:rgb(0,0,0);stroke-width:1;stroke-linecap:round"></path><path d="M-242.6971980537174,-120.43948045081447L-136.48570139315035,-248.56743528274922L-151.13819839999746,-250.3677015657704z" style="fill:rgb(255,255,255); fill-opacity: 0.4"></path><path d="M-80.18890689215883,61.27582317661384L-80.18890689215883,72.35087527028453L-39.9232814858193,39.639444973084956z" style="fill:rgb(254,118,118); fill-opacity: 0.4"></path><path d="M44.3060720975752,-44.639663835661466L68.90314984521127,-3.9420162549290922M51.84487857737642,-109.52924337562644L-1.26086975290712,-45.46526595965907" style="fill:none;stroke:rgb(0,0,0);stroke-width:1;stroke-linecap:round"></path><path d="M248.23894180152598,75.81001167412295L183.52607123745034,67.85912119452875L183.52607123745034,-93.35034832837432z" style="fill:rgb(255,255,255); fill-opacity: 0.4"></path><path d="M47.954423120748515,-37.96579121685576L47.954423120748515,-49.04084331052646L68.90315077655387,-3.9420159392737486z" style="fill:rgb(254,118,118); fill-opacity: 0.4"></path><path d="M-151.13819839999744,72.05123748003572L-257.34969506056456,200.17919231197047L-257.34969506056456,-122.23974673383572z" style="fill:rgb(255,255,255); fill-opacity: 0.4"></path><path d="M44.30607088082195,-33.56461125323842L47.954423120748515,-37.96579121685576L68.90315077655387,-3.9420159392737486z" style="fill:rgb(254,118,118); fill-opacity: 0.4"></path><path d="M-1.2608697529071102,115.74420356324403L51.84487857737642,51.68022614727665L51.84487857737641,-109.52924337562644z" style="fill:rgb(255,255,255); fill-opacity: 0.4"></path><path d="M47.954423120748515,-49.04084331052646L44.30607088082195,-44.63966334690912L68.90315077655387,-3.9420159392737486z" style="fill:rgb(254,118,118); fill-opacity: 0.4"></path><path d="M-12.867991986699245,-117.48013385522061L-12.867991986699238,43.729335667682456L-65.97374031698277,-53.416156439253264z" style="fill:rgb(255,255,255); fill-opacity: 0.4"></path><path d="M44.30607088082195,-44.63966334690912L44.30607088082195,-33.56461125323842L68.90315077655387,-3.9420159392737486z" style="fill:rgb(254,118,118); fill-opacity: 0.4"></path><path d="M-107.23015310242835,62.34251112486696L-195.7397336529009,169.11580681814593L-195.7397336529009,-99.56664238669255zM439.61489654510774,-177.78533707710073L439.61489654510774,144.63360196870542L424.9623995382606,-179.58560336012198zM378.0049351374441,-146.72195158327622L378.0049351374441,121.96049762156224L304.0473656635408,-155.8086839426721zM-121.7821641789976,-90.47991002729665L-33.27258362852505,-197.25320572057558L-107.23015310242836,-206.33993807997146z" style="fill:rgb(255,255,255); fill-opacity: 0.4"></path><path d="M236.928335621881,53.048989218528234L172.21546505780535,45.098098738934034M172.21546505780535,34.023046645263335L172.21546505780535,45.098098738934034M172.21546505780535,45.098098738934034L168.5671128178788,49.49927870255138M236.92833486911377,41.97393826540036L282.1560607852479,69.37716811278783M236.92833486911377,53.04899035907106L282.1560607852479,69.37716811278783M233.2799826291872,57.4501703226884L282.1560607852479,69.37716811278783M233.2799826291872,46.3751182290177L282.1560607852479,69.37716811278783" style="fill:none;stroke:rgb(0,0,0);stroke-width:1;stroke-linecap:round"></path><path d="M215.53778511306828,219.6470609554453L304.04736566354086,112.87376526216634L378.0049351374441,121.96049762156224z" style="fill:rgb(255,255,255); fill-opacity: 0.4"></path><path d="M236.928335621881,41.97393712485753L172.21546505780535,34.023046645263335M172.21546505780535,34.023046645263335L168.5671128178788,38.42422660888067M125.88090642541898,27.4354484934179L70.41273113705132,20.620399447122455M70.41273113705132,-21.964759588645293L70.41273113705132,20.620399447122455M70.41273113705132,20.620399447122455L56.38429505912423,37.543565777219534" style="fill:none;stroke:rgb(0,0,0);stroke-width:1;stroke-linecap:round"></path><path d="M172.21546505780532,34.02304664526333L172.21546505780535,45.09809873893403L168.56711281787878,38.42422660888068zM236.92833562188102,53.04898921852823L172.21546505780535,45.09809873893403L172.21546505780532,34.02304664526333zM172.21546505780535,45.09809873893403L168.56711281787878,49.49927870255138L168.56711281787878,38.42422660888068z" style="fill:rgb(179,187,255); fill-opacity: 0.4"></path><path d="M318.75090287769353,270.9612905176189L424.9623995382606,142.83333568568418L439.61489654510774,144.63360196870542zM-1.2608697529071102,115.74420356324403L-65.97374031698277,107.7933130836498L51.84487857737642,51.68022614727665zM248.23894180152598,-85.39945784878013L248.23894180152598,75.81001167412295L183.52607123745034,-93.35034832837432zM130.4203229071668,131.92309861049614L183.52607123745034,67.85912119452875L248.23894180152598,75.81001167412295z" style="fill:rgb(255,255,255); fill-opacity: 0.4"></path><path d="M168.56711281787878,49.49927870255138L172.21546505780535,45.09809873893403L236.92833562188102,53.04898921852823z" style="fill:rgb(179,187,255); fill-opacity: 0.4"></path><path d="M168.5671128178788,38.42422660888067L168.5671128178788,49.49927870255138M168.5671128178788,49.49927870255138L233.27998338195445,57.45016918214557" style="fill:none;stroke:rgb(0,0,0);stroke-width:1;stroke-linecap:round"></path><path d="M236.9283368957657,53.048989375042964L236.9283368957657,41.973937281372265L282.15606193247197,69.37716774028176z" style="fill:rgb(254,118,118); fill-opacity: 0.4"></path><path d="M168.5671128178788,38.42422660888067L233.27998338195445,46.37511708847487" style="fill:none;stroke:rgb(0,0,0);stroke-width:1;stroke-linecap:round"></path><path d="M236.928335621881,41.97393712485753L236.92833562188102,53.04898921852823L172.21546505780532,34.02304664526333z" style="fill:rgb(179,187,255); fill-opacity: 0.4"></path><path d="M233.27998465583914,57.4501693386603L236.9283368957657,53.048989375042964L282.15606193247197,69.37716774028176z" style="fill:rgb(254,118,118); fill-opacity: 0.4"></path><path d="M125.75477848571391,1.9282204838213663L70.28660319734624,-4.886828562474079M70.28660319734624,-15.961880656144778L70.28660319734624,-4.886828562474079M70.28660319734624,-4.886828562474079L66.63825095741969,-0.48564859885673506" style="fill:none;stroke:rgb(0,0,0);stroke-width:1;stroke-linecap:round"></path><path d="M125.88090642541898,27.435448493417905L70.41273113705132,20.620399447122455L70.41273113705132,-21.96475958864529z" style="fill:rgb(255,255,255); fill-opacity: 0.4"></path><path d="M168.56711281787878,38.42422660888068L233.27998338195445,46.37511708847487L172.21546505780532,34.02304664526333z" style="fill:rgb(179,187,255); fill-opacity: 0.4"></path><path d="M-12.867991986699238,43.729335667682456L-65.97374031698277,107.7933130836498L-65.97374031698277,-53.416156439253264z" style="fill:rgb(255,255,255); fill-opacity: 0.4"></path><path d="M236.928335621881,41.97393712485753L236.928335621881,53.048989218528234M236.928335621881,53.048989218528234L233.27998338195445,57.45016918214557M236.92833486911377,41.97393826540036L236.92833486911377,53.04899035907106M236.92833486911377,53.04899035907106L233.2799826291872,57.4501703226884M248.23894180152598,-85.39945784878013L183.52607123745034,-93.35034832837432M183.52607123745034,-93.35034832837432L130.42032290716682,-29.286370912406955" style="fill:none;stroke:rgb(0,0,0);stroke-width:1;stroke-linecap:round"></path><path d="M236.9283368957657,41.973937281372265L233.27998465583914,46.37511724498961L282.15606193247197,69.37716774028176z" style="fill:rgb(254,118,118); fill-opacity: 0.4"></path><path d="M233.27998338195445,57.45016918214557L168.56711281787878,49.49927870255138L236.92833562188102,53.04898921852823zM168.56711281787878,38.42422660888068L168.56711281787878,49.49927870255138L233.27998338195445,46.37511708847487zM233.27998338195445,46.37511708847487L236.928335621881,41.97393712485753L172.21546505780532,34.02304664526333z" style="fill:rgb(179,187,255); fill-opacity: 0.4"></path><path d="M378.00493513744414,-146.72195158327622L304.04736566354086,-155.80868394267208M304.04736566354086,-155.80868394267208L215.53778511306828,-49.035388249393165M125.75477848571391,-9.146831609849333L70.28660319734624,-15.961880656144778M70.28660319734624,-15.961880656144778L66.63825095741969,-11.560700692527433" style="fill:none;stroke:rgb(0,0,0);stroke-width:1;stroke-linecap:round"></path><path d="M233.27998465583914,46.37511724498961L233.27998465583914,57.4501693386603L282.15606193247197,69.37716774028176z" style="fill:rgb(254,118,118); fill-opacity: 0.4"></path><path d="M125.88090642541898,-15.14971054234984L125.88090642541898,27.4354484934179M125.88090642541898,27.4354484934179L111.85247034749187,44.358614823514976M125.7547803909356,-9.146832042060364L176.14304052487512,-41.33272779357286M125.7547803909356,1.9282204916933652L176.14304052487512,-41.33272779357286M122.10642815100904,6.329400455310709L176.14304052487512,-41.33272779357286M122.10642815100904,-4.745652078443021L176.14304052487512,-41.33272779357286" style="fill:none;stroke:rgb(0,0,0);stroke-width:1;stroke-linecap:round"></path><path d="M70.28660319734625,-15.961880656144782L70.28660319734625,-4.88682856247408L66.63825095741969,-11.560700692527437z" style="fill:rgb(179,187,255); fill-opacity: 0.4"></path><path d="M125.88090642541898,-15.14971054234984L70.41273113705132,-21.964759588645293M70.41273113705132,-21.964759588645293L56.38429505912423,-5.041593258548216M236.928335621881,41.97393712485753L233.27998338195445,46.37511708847487M236.92833486911377,41.97393826540036L233.2799826291872,46.3751182290177" style="fill:none;stroke:rgb(0,0,0);stroke-width:1;stroke-linecap:round"></path><path d="M125.75477848571391,1.9282204838213666L70.28660319734625,-4.88682856247408L70.28660319734625,-15.961880656144782zM233.27998338195445,57.45016918214557L236.92833562188102,53.04898921852823L236.928335621881,41.97393712485753z" style="fill:rgb(179,187,255); fill-opacity: 0.4"></path><path d="M236.9283368957657,41.973937281372265L236.9283368957657,53.048989375042964L233.27998465583914,57.4501693386603z" style="fill:rgb(254,118,118); fill-opacity: 0.4"></path><path d="M56.38429505912423,37.543565777219534L70.41273113705132,20.620399447122455L125.88090642541898,27.435448493417905z" style="fill:rgb(255,255,255); fill-opacity: 0.4"></path><path d="M168.56711281787878,49.49927870255138L233.27998338195445,57.45016918214557L233.27998338195445,46.37511708847487z" style="fill:rgb(179,187,255); fill-opacity: 0.4"></path><path d="M-1.260869752907117,-45.46526595965907L51.84487857737641,-109.52924337562644L-12.867991986699245,-117.48013385522061z" style="fill:rgb(255,255,255); fill-opacity: 0.4"></path><path d="M70.28660319734625,-4.88682856247408L66.6382509574197,-0.4856485988567363L66.63825095741969,-11.560700692527437zM66.6382509574197,-0.4856485988567363L70.28660319734625,-4.88682856247408L125.75477848571391,1.9282204838213666z" style="fill:rgb(179,187,255); fill-opacity: 0.4"></path><path d="M66.63825095741969,-11.560700692527433L66.63825095741969,-0.48564859885673506M66.63825095741969,-0.48564859885673506L122.10642624578736,6.32940044743871" style="fill:none;stroke:rgb(0,0,0);stroke-width:1;stroke-linecap:round"></path><path d="M125.88090642541898,-15.14971054234984L125.88090642541898,27.435448493417905L70.41273113705132,-21.96475958864529z" style="fill:rgb(255,255,255); fill-opacity: 0.4"></path><path d="M233.27998338195445,46.37511708847487L233.27998338195445,57.45016918214557L236.928335621881,41.97393712485753z" style="fill:rgb(179,187,255); fill-opacity: 0.4"></path><path d="M236.9283368957657,41.973937281372265L233.27998465583914,57.4501693386603L233.27998465583914,46.37511724498961z" style="fill:rgb(254,118,118); fill-opacity: 0.4"></path><path d="M233.27998338195445,46.37511708847487L233.27998338195445,57.45016918214557M233.2799826291872,57.4501703226884L233.2799826291872,46.3751182290177" style="fill:none;stroke:rgb(0,0,0);stroke-width:1;stroke-linecap:round"></path><path d="M125.75477848571391,-9.146831609849334L125.75477848571391,1.9282204838213666L70.28660319734625,-15.961880656144782z" style="fill:rgb(179,187,255); fill-opacity: 0.4"></path><path d="M70.41273113705132,-21.96475958864529L70.41273113705132,20.620399447122455L56.38429505912422,-5.0415932585482155z" style="fill:rgb(255,255,255); fill-opacity: 0.4"></path><path d="M125.7547793180351,1.9282205860837844L125.7547793180351,-9.146831507586915L176.14303979280652,-41.33272880309009z" style="fill:rgb(254,118,118); fill-opacity: 0.4"></path><path d="M66.63825095741969,-11.560700692527433L122.10642624578736,-4.745651646231988M125.75477848571391,-9.146831609849333L125.75477848571391,1.9282204838213663M125.75477848571391,1.9282204838213663L122.10642624578736,6.32940044743871M125.7547803909356,-9.146832042060364L125.7547803909356,1.9282204916933652M125.7547803909356,1.9282204916933652L122.10642815100904,6.329400455310709" style="fill:none;stroke:rgb(0,0,0);stroke-width:1;stroke-linecap:round"></path><path d="M122.10642707810855,6.329400549701128L125.7547793180351,1.9282205860837844L176.14303979280652,-41.33272880309009z" style="fill:rgb(254,118,118); fill-opacity: 0.4"></path><path d="M66.63825095741969,-11.560700692527437L122.10642624578736,-4.74565164623199L70.28660319734625,-15.961880656144782z" style="fill:rgb(179,187,255); fill-opacity: 0.4"></path><path d="M-242.6971980537174,-120.43948045081447L-242.6971980537174,201.9794585949917L-136.48570139315035,-248.56743528274922z" style="fill:rgb(255,255,255); fill-opacity: 0.4"></path><path d="M122.10642624578736,6.32940044743871L66.6382509574197,-0.4856485988567363L125.75477848571391,1.9282204838213666zM122.10642624578736,-4.74565164623199L125.75477848571391,-9.146831609849334L70.28660319734625,-15.961880656144782zM66.63825095741969,-11.560700692527437L66.6382509574197,-0.4856485988567363L122.10642624578736,-4.74565164623199z" style="fill:rgb(179,187,255); fill-opacity: 0.4"></path><path d="M125.7547793180351,-9.146831507586915L122.10642707810855,-4.745651543969572L176.14303979280652,-41.33272880309009z" style="fill:rgb(254,118,118); fill-opacity: 0.4"></path><path d="M125.75477848571391,-9.146831609849333L122.10642624578736,-4.745651646231988M125.7547803909356,-9.146832042060364L122.10642815100904,-4.745652078443021" style="fill:none;stroke:rgb(0,0,0);stroke-width:1;stroke-linecap:round"></path><path d="M122.10642624578736,6.32940044743871L125.75477848571391,1.9282204838213666L125.75477848571391,-9.146831609849334z" style="fill:rgb(179,187,255); fill-opacity: 0.4"></path><path d="M125.7547793180351,-9.146831507586915L125.7547793180351,1.9282205860837844L122.10642707810855,6.329400549701128zM122.10642707810855,-4.745651543969572L122.10642707810855,6.329400549701128L176.14303979280652,-41.33272880309009z" style="fill:rgb(254,118,118); fill-opacity: 0.4"></path><path d="M248.23894180152598,-85.39945784878013L195.13319347124246,-21.335480432812762" style="fill:none;stroke:rgb(0,0,0);stroke-width:1;stroke-linecap:round"></path><path d="M70.41273113705132,20.620399447122455L56.38429505912423,37.543565777219534L56.38429505912422,-5.0415932585482155z" style="fill:rgb(255,255,255); fill-opacity: 0.4"></path><path d="M439.61489654510774,-177.78533707710076L424.9623995382606,-179.585603360122M424.9623995382606,-179.585603360122L318.75090287769353,-51.45764852818728" style="fill:none;stroke:rgb(0,0,0);stroke-width:1;stroke-linecap:round"></path><path d="M66.6382509574197,-0.4856485988567363L122.10642624578736,6.32940044743871L122.10642624578736,-4.74565164623199z" style="fill:rgb(179,187,255); fill-opacity: 0.4"></path><path d="M125.88090642541898,-15.14971054234984L111.85247034749187,1.77345578774723" style="fill:none;stroke:rgb(0,0,0);stroke-width:1;stroke-linecap:round"></path><path d="M111.85247034749187,44.358614823514976L125.88090642541898,27.435448493417905L125.88090642541898,-15.14971054234984z" style="fill:rgb(255,255,255); fill-opacity: 0.4"></path><path d="M-257.34969506056456,-122.23974673383572L-257.34969506056456,200.17919231197044M-257.34969506056456,200.17919231197044L-242.6971980537174,201.97945859499168M378.00493513744414,-146.72195158327622L289.4953545869716,-39.94865588999727" style="fill:none;stroke:rgb(0,0,0);stroke-width:1;stroke-linecap:round"></path><path d="M122.10642624578736,-4.74565164623199L122.10642624578736,6.32940044743871L125.75477848571391,-9.146831609849334z" style="fill:rgb(179,187,255); fill-opacity: 0.4"></path><path d="M125.7547793180351,-9.146831507586915L122.10642707810855,6.329400549701128L122.10642707810855,-4.745651543969572z" style="fill:rgb(254,118,118); fill-opacity: 0.4"></path><path d="M-195.7397336529009,-99.56664238669255L-195.7397336529009,169.1158068181459M-195.7397336529009,169.1158068181459L-121.78216417899758,178.20253917754178" style="fill:none;stroke:rgb(0,0,0);stroke-width:1;stroke-linecap:round"></path><path d="M111.85247034749187,44.358614823514976L56.38429505912423,37.543565777219534L125.88090642541898,27.435448493417905z" style="fill:rgb(255,255,255); fill-opacity: 0.4"></path><path d="M122.10642624578736,-4.745651646231988L122.10642624578736,6.32940044743871M122.10642815100904,6.329400455310709L122.10642815100904,-4.745652078443021M439.61489654510774,-177.78533707710076L333.40339988454065,-49.65738224516603" style="fill:none;stroke:rgb(0,0,0);stroke-width:1;stroke-linecap:round"></path><path d="M195.13319347124246,139.87398909009033L248.23894180152598,75.81001167412295L248.23894180152598,-85.39945784878013z" style="fill:rgb(255,255,255); fill-opacity: 0.4"></path><path d="M56.38429505912423,-5.041593258548216L56.38429505912423,37.543565777219534M56.38429505912423,37.543565777219534L111.85247034749187,44.358614823514976M-242.69719805371744,-120.43948045081447L-242.6971980537174,201.97945859499168M-65.97374031698277,-53.416156439253264L-65.97374031698277,107.7933130836498M-65.97374031698277,107.7933130836498L-1.2608697529071133,115.74420356324401" style="fill:none;stroke:rgb(0,0,0);stroke-width:1;stroke-linecap:round"></path><path d="M111.85247034749187,1.7734557877472317L125.88090642541898,-15.14971054234984L70.41273113705132,-21.96475958864529zM183.52607123745034,-93.35034832837432L183.52607123745034,67.85912119452875L130.4203229071668,-29.286370912406955zM289.4953545869716,228.7337933148412L378.0049351374441,121.96049762156224L378.0049351374441,-146.72195158327622zM-121.7821641789976,-90.47991002729665L-121.78216417899758,178.2025391775418L-33.27258362852505,-197.25320572057558zM56.38429505912422,-5.0415932585482155L111.85247034749187,1.7734557877472317L70.41273113705132,-21.96475958864529zM333.40339988454065,272.76155680064016L439.61489654510774,144.63360196870542L439.61489654510774,-177.78533707710073zM-1.260869752907117,-45.46526595965907L-1.2608697529071102,115.74420356324403L51.84487857737641,-109.52924337562644zM111.85247034749187,1.7734557877472317L111.85247034749187,44.358614823514976L125.88090642541898,-15.14971054234984z" style="fill:rgb(255,255,255); fill-opacity: 0.4"></path><path d="M111.85247034749187,1.77345578774723L111.85247034749187,44.358614823514976" style="fill:none;stroke:rgb(0,0,0);stroke-width:1;stroke-linecap:round"></path><path d="M56.38429505912423,37.543565777219534L111.85247034749187,44.358614823514976L111.85247034749187,1.7734557877472317zM56.38429505912422,-5.0415932585482155L56.38429505912423,37.543565777219534L111.85247034749187,1.7734557877472317z" style="fill:rgb(255,255,255); fill-opacity: 0.4"></path><path d="M56.38429505912423,-5.041593258548216L111.85247034749187,1.77345578774723M-121.78216417899758,-90.47991002729665L-121.78216417899758,178.20253917754178M-1.26086975290712,-45.46526595965907L-1.2608697529071133,115.74420356324401" style="fill:none;stroke:rgb(0,0,0);stroke-width:1;stroke-linecap:round"></path><path d="M195.13319347124246,139.87398909009033L130.4203229071668,131.92309861049614L248.23894180152598,75.81001167412295zM304.0473656635408,-155.8086839426721L304.04736566354086,112.87376526216634L215.53778511306825,-49.035388249393165zM-65.97374031698277,-53.416156439253264L-1.260869752907117,-45.46526595965907L-12.867991986699245,-117.48013385522061zM-257.34969506056456,-122.23974673383572L-242.6971980537174,-120.43948045081447L-151.13819839999746,-250.3677015657704zM183.52607123745034,67.85912119452875L130.4203229071668,131.92309861049614L130.4203229071668,-29.286370912406955zM-195.7397336529009,-99.56664238669255L-121.7821641789976,-90.47991002729665L-107.23015310242836,-206.33993807997146zM-65.97374031698277,107.7933130836498L-1.2608697529071102,115.74420356324403L-1.260869752907117,-45.46526595965907zM195.13319347124246,-21.335480432812766L248.23894180152598,-85.39945784878013L183.52607123745034,-93.35034832837432zM-257.34969506056456,200.17919231197047L-242.6971980537174,201.9794585949917L-242.6971980537174,-120.43948045081447zM289.4953545869716,228.7337933148412L215.53778511306828,219.6470609554453L378.0049351374441,121.96049762156224zM-195.7397336529009,169.11580681814593L-121.78216417899758,178.2025391775418L-121.7821641789976,-90.47991002729665zM424.9623995382606,-179.58560336012198L424.9623995382606,142.83333568568418L318.75090287769353,-51.45764852818727zM-65.97374031698277,-53.416156439253264L-65.97374031698277,107.7933130836498L-1.260869752907117,-45.46526595965907z" style="fill:rgb(255,255,255); fill-opacity: 0.4"></path><path d="M130.42032290716682,-29.286370912406955L130.42032290716682,131.92309861049614M130.42032290716682,131.92309861049614L195.13319347124246,139.87398909009033" style="fill:none;stroke:rgb(0,0,0);stroke-width:1;stroke-linecap:round"></path><path d="M333.40339988454065,272.76155680064016L318.75090287769353,270.9612905176189L439.61489654510774,144.63360196870542z" style="fill:rgb(255,255,255); fill-opacity: 0.4"></path><path d="M-65.97374031698277,-53.416156439253264L-1.26086975290712,-45.46526595965907M321.20132880432647,88.34977282602726L247.2437593304232,79.26304046663138M247.2437593304232,68.18798837296069L247.2437593304232,79.26304046663138M247.2437593304232,79.26304046663138L243.5954070904966,83.66422043024873" style="fill:none;stroke:rgb(0,0,0);stroke-width:1;stroke-linecap:round"></path><path d="M304.04736566354086,112.87376526216634L215.53778511306828,219.6470609554453L215.53778511306825,-49.035388249393165zM195.13319347124246,-21.335480432812766L195.13319347124246,139.87398909009033L248.23894180152598,-85.39945784878013z" style="fill:rgb(255,255,255); fill-opacity: 0.4"></path><path d="M321.20132880432647,77.27472073235657L247.2437593304232,68.18798837296069M247.2437593304232,68.18798837296069L243.5954070904966,72.58916833657803" style="fill:none;stroke:rgb(0,0,0);stroke-width:1;stroke-linecap:round"></path><path d="M289.4953545869716,-39.948655889997276L378.0049351374441,-146.72195158327622L304.0473656635408,-155.8086839426721z" style="fill:rgb(255,255,255); fill-opacity: 0.4"></path><path d="M247.24375933042313,68.18798837296069L247.24375933042313,79.26304046663138L243.5954070904966,72.58916833657803zM247.24375933042313,79.26304046663138L243.5954070904966,83.66422043024872L243.5954070904966,72.58916833657803zM321.2013288043264,88.34977282602726L247.24375933042313,79.26304046663138L247.24375933042313,68.18798837296069z" style="fill:rgb(179,187,255); fill-opacity: 0.4"></path><path d="M195.13319347124246,-21.335480432812762L195.13319347124246,139.87398909009033" style="fill:none;stroke:rgb(0,0,0);stroke-width:1;stroke-linecap:round"></path><path d="M-195.7397336529009,-99.56664238669255L-195.7397336529009,169.11580681814593L-121.7821641789976,-90.47991002729665z" style="fill:rgb(255,255,255); fill-opacity: 0.4"></path><path d="M243.5954070904966,72.58916833657803L243.5954070904966,83.66422043024873M243.5954070904966,83.66422043024873L317.5529765643999,92.75095278964461" style="fill:none;stroke:rgb(0,0,0);stroke-width:1;stroke-linecap:round"></path><path d="M243.5954070904966,83.66422043024872L247.24375933042313,79.26304046663138L321.2013288043264,88.34977282602726z" style="fill:rgb(179,187,255); fill-opacity: 0.4"></path><path d="M130.4203229071668,-29.286370912406955L195.13319347124246,-21.335480432812766L183.52607123745034,-93.35034832837432z" style="fill:rgb(255,255,255); fill-opacity: 0.4"></path><path d="M243.5954070904966,72.58916833657803L317.5529765643999,81.67590069597392" style="fill:none;stroke:rgb(0,0,0);stroke-width:1;stroke-linecap:round"></path><path d="M321.2013288043264,77.27472073235657L321.2013288043264,88.34977282602726L247.24375933042313,68.18798837296069z" style="fill:rgb(179,187,255); fill-opacity: 0.4"></path><path d="M-257.34969506056456,-122.23974673383572L-257.34969506056456,200.17919231197047L-242.6971980537174,-120.43948045081447z" style="fill:rgb(255,255,255); fill-opacity: 0.4"></path><path d="M243.5954070904966,72.58916833657803L317.5529765643999,81.67590069597392L247.24375933042313,68.18798837296069zM243.5954070904966,72.58916833657803L243.5954070904966,83.66422043024872L317.5529765643999,81.67590069597392zM317.5529765643999,92.7509527896446L243.5954070904966,83.66422043024872L321.2013288043264,88.34977282602726z" style="fill:rgb(179,187,255); fill-opacity: 0.4"></path><path d="M321.20132058762374,77.27471890604399L321.20132058762374,88.34977099971469M321.20132058762374,88.34977099971469L317.55296834769723,92.75095096333204M321.20132058762374,88.34977099971469L354.6090517951246,98.4961425291524M321.20132880432647,77.27472073235657L321.20132880432647,88.34977282602726M321.20132880432647,88.34977282602726L317.5529765643999,92.75095278964461" style="fill:none;stroke:rgb(0,0,0);stroke-width:1;stroke-linecap:round"></path><path d="M317.5529765643999,81.67590069597392L321.2013288043264,77.27472073235657L247.24375933042313,68.18798837296069z" style="fill:rgb(179,187,255); fill-opacity: 0.4"></path><path d="M130.4203229071668,131.92309861049614L195.13319347124246,139.87398909009033L195.13319347124246,-21.335480432812766z" style="fill:rgb(255,255,255); fill-opacity: 0.4"></path><path d="M321.20132058762374,77.27471890604399L317.55296834769723,81.67589886966134M321.20132058762374,77.27471890604399L354.6090517951246,98.4961425291524M321.20132880432647,77.27472073235657L317.5529765643999,81.67590069597392" style="fill:none;stroke:rgb(0,0,0);stroke-width:1;stroke-linecap:round"></path><path d="M243.5954070904966,83.66422043024872L317.5529765643999,92.7509527896446L317.5529765643999,81.67590069597392z" style="fill:rgb(179,187,255); fill-opacity: 0.4"></path><path d="M321.2013287027149,77.27472071987215L321.2013287027149,88.34977281354284L317.5529764627883,92.7509527771602z" style="fill:rgb(254,118,118); fill-opacity: 0.4"></path><path d="M317.5529765643999,92.7509527896446L321.2013288043264,88.34977282602726L321.2013288043264,77.27472073235657z" style="fill:rgb(179,187,255); fill-opacity: 0.4"></path><path d="M333.40339988454065,-49.65738224516603L439.61489654510774,-177.78533707710073L424.9623995382606,-179.58560336012198z" style="fill:rgb(255,255,255); fill-opacity: 0.4"></path><path d="M321.2013287027149,88.34977281354284L321.2013287027149,77.27472071987215L354.6090607268298,98.49614266926098zM321.2013287027149,77.27472071987215L317.5529764627883,92.7509527771602L317.5529764627883,81.6759006834895z" style="fill:rgb(254,118,118); fill-opacity: 0.4"></path><path d="M317.5529765643999,81.67590069597392L317.5529765643999,92.7509527896446L321.2013288043264,77.27472073235657z" style="fill:rgb(179,187,255); fill-opacity: 0.4"></path><path d="M317.55296834769723,92.75095096333204L317.55296834769723,81.67589886966134M317.55296834769723,92.75095096333204L354.6090517951246,98.4961425291524M317.5529765643999,81.67590069597392L317.5529765643999,92.75095278964461" style="fill:none;stroke:rgb(0,0,0);stroke-width:1;stroke-linecap:round"></path><path d="M317.5529764627883,92.7509527771602L321.2013287027149,88.34977281354284L354.6090607268298,98.49614266926098zM321.2013287027149,77.27472071987215L317.5529764627883,81.6759006834895L354.6090607268298,98.49614266926098z" style="fill:rgb(254,118,118); fill-opacity: 0.4"></path><path d="M317.55296834769723,81.67589886966134L354.6090517951246,98.4961425291524" style="fill:none;stroke:rgb(0,0,0);stroke-width:1;stroke-linecap:round"></path><path d="M317.5529764627883,81.6759006834895L317.5529764627883,92.7509527771602L354.6090607268298,98.49614266926098z" style="fill:rgb(254,118,118); fill-opacity: 0.4"></path><path d="M424.9623995382606,142.83333568568418L318.75090287769353,270.9612905176189L318.75090287769353,-51.45764852818727z" style="fill:rgb(255,255,255); fill-opacity: 0.4"></path><path d="M-195.7397336529009,-99.56664238669255L-121.78216417899758,-90.47991002729665" style="fill:none;stroke:rgb(0,0,0);stroke-width:1;stroke-linecap:round"></path><path d="M130.4203229071668,-29.286370912406955L130.4203229071668,131.92309861049614L195.13319347124246,-21.335480432812766z" style="fill:rgb(255,255,255); fill-opacity: 0.4"></path><path d="M215.53778511306828,-49.035388249393165L215.53778511306828,219.6470609554453M215.53778511306828,219.6470609554453L289.4953545869716,228.7337933148412M130.42032290716682,-29.286370912406955L195.13319347124246,-21.335480432812762" style="fill:none;stroke:rgb(0,0,0);stroke-width:1;stroke-linecap:round"></path><path d="M289.4953545869716,-39.948655889997276L289.4953545869716,228.7337933148412L378.0049351374441,-146.72195158327622z" style="fill:rgb(255,255,255); fill-opacity: 0.4"></path><path d="M-257.34969506056456,-122.23974673383572L-242.69719805371744,-120.43948045081447M289.4953545869716,-39.94865588999727L289.4953545869716,228.7337933148412" style="fill:none;stroke:rgb(0,0,0);stroke-width:1;stroke-linecap:round"></path><path d="M215.53778511306825,-49.035388249393165L289.4953545869716,-39.948655889997276L304.0473656635408,-155.8086839426721zM333.40339988454065,-49.65738224516603L333.40339988454065,272.76155680064016L439.61489654510774,-177.78533707710073z" style="fill:rgb(255,255,255); fill-opacity: 0.4"></path><path d="M318.75090287769353,-51.45764852818728L318.7509028776936,270.9612905176189M318.7509028776936,270.9612905176189L333.40339988454065,272.76155680064016M333.40339988454065,-49.65738224516603L333.40339988454065,272.76155680064016" style="fill:none;stroke:rgb(0,0,0);stroke-width:1;stroke-linecap:round"></path><path d="M215.53778511306828,219.6470609554453L289.4953545869716,228.7337933148412L289.4953545869716,-39.948655889997276zM318.75090287769353,-51.45764852818727L333.40339988454065,-49.65738224516603L424.9623995382606,-179.58560336012198zM215.53778511306825,-49.035388249393165L215.53778511306828,219.6470609554453L289.4953545869716,-39.948655889997276zM318.75090287769353,270.9612905176189L333.40339988454065,272.76155680064016L333.40339988454065,-49.65738224516603z" style="fill:rgb(255,255,255); fill-opacity: 0.4"></path><path d="M215.53778511306828,-49.035388249393165L289.4953545869716,-39.94865588999727" style="fill:none;stroke:rgb(0,0,0);stroke-width:1;stroke-linecap:round"></path><path d="M318.75090287769353,-51.45764852818727L318.75090287769353,270.9612905176189L333.40339988454065,-49.65738224516603z" style="fill:rgb(255,255,255); fill-opacity: 0.4"></path><path d="M318.75090287769353,-51.45764852818728L333.40339988454065,-49.65738224516603" style="fill:none;stroke:rgb(0,0,0);stroke-width:1;stroke-linecap:round"></path></svg>