<svg xmlns="http://www.w3.org/2000/svg" width="1920" height="878" style="cursor: move;"><g transform="translate(-692.7492240951551,-300.6017299566871) scale(1.6021397551792473)"><path class="link" marker-end="" d="M696,410.5, 919,272" style="stroke-width: 1.47377; stroke-opacity: 0.736883; stroke: rgb(67, 148, 255);"></path><path class="link" marker-end="" d="M696,410.5, 919,313" style="stroke-width: 0.330364; stroke-opacity: 0.165182; stroke: rgb(255, 227, 227);"></path><path class="link" marker-end="" d="M696,410.5, 919,354" style="stroke-width: 0.848059; stroke-opacity: 0.424029; stroke: rgb(147, 194, 255);"></path><path class="link" marker-end="" d="M696,410.5, 919,395" style="stroke-width: 0.400961; stroke-opacity: 0.20048; stroke: rgb(255, 222, 222);"></path><path class="link" marker-end="" d="M696,410.5, 919,436" style="stroke-width: 1.96688; stroke-opacity: 0.983439; stroke: rgb(254, 91, 91);"></path><path class="link" marker-end="" d="M696,410.5, 919,477" style="stroke-width: 0.590185; stroke-opacity: 0.295092; stroke: rgb(255, 206, 206);"></path><path class="link" marker-end="" d="M696,410.5, 919,518" style="stroke-width: 0.626713; stroke-opacity: 0.313356; stroke: rgb(255, 203, 203);"></path><path class="link" marker-end="" d="M696,456.5, 919,272" style="stroke-width: 1.92428; stroke-opacity: 0.962141; stroke: rgb(10, 115, 255);"></path><path class="link" marker-end="" d="M696,456.5, 919,313" style="stroke-width: 1.03808; stroke-opacity: 0.519041; stroke: rgb(123, 180, 255);"></path><path class="link" marker-end="" d="M696,456.5, 919,354" style="stroke-width: 0.0168786; stroke-opacity: 0.00843932; stroke: rgb(255, 254, 254);"></path><path class="link" marker-end="" d="M696,456.5, 919,395" style="stroke-width: 1.85798; stroke-opacity: 0.92899; stroke: rgb(18, 120, 255);"></path><path class="link" marker-end="" d="M696,456.5, 919,436" style="stroke-width: 0.151106; stroke-opacity: 0.0755529; stroke: rgb(236, 244, 255);"></path><path class="link" marker-end="" d="M696,456.5, 919,477" style="stroke-width: 1.61791; stroke-opacity: 0.808956; stroke: rgb(254, 120, 120);"></path><path class="link" marker-end="" d="M696,456.5, 919,518" style="stroke-width: 0.540267; stroke-opacity: 0.270134; stroke: rgb(186, 216, 255);"></path><path class="link" marker-end="" d="M696,502.5, 919,272" style="stroke-width: 1.45412; stroke-opacity: 0.72706; stroke: rgb(70, 150, 255);"></path><path class="link" marker-end="" d="M696,502.5, 919,313" style="stroke-width: 0.543074; stroke-opacity: 0.271537; stroke: rgb(186, 216, 255);"></path><path class="link" marker-end="" d="M696,502.5, 919,354" style="stroke-width: 1.11687; stroke-opacity: 0.558436; stroke: rgb(113, 174, 255);"></path><path class="link" marker-end="" d="M696,502.5, 919,395" style="stroke-width: 0.613647; stroke-opacity: 0.306824; stroke: rgb(177, 211, 255);"></path><path class="link" marker-end="" d="M696,502.5, 919,436" style="stroke-width: 1.54049; stroke-opacity: 0.770244; stroke: rgb(254, 126, 126);"></path><path class="link" marker-end="" d="M696,502.5, 919,477" style="stroke-width: 1.82189; stroke-opacity: 0.910947; stroke: rgb(254, 103, 103);"></path><path class="link" marker-end="" d="M696,502.5, 919,518" style="stroke-width: 1.94078; stroke-opacity: 0.970391; stroke: rgb(254, 93, 93);"></path><path class="link" marker-end="" d="M919,231, 1142,313" style="stroke-width: 1.79465; stroke-opacity: 0.897324; stroke: rgb(254, 105, 105);"></path><path class="link" marker-end="" d="M919,231, 1142,354" style="stroke-width: 0.00608153; stroke-opacity: 0.00304077; stroke: rgb(255, 254, 254);"></path><path class="link" marker-end="" d="M919,231, 1142,395" style="stroke-width: 1.43286; stroke-opacity: 0.71643; stroke: rgb(254, 135, 135);"></path><path class="link" marker-end="" d="M919,231, 1142,436" style="stroke-width: 0.37325; stroke-opacity: 0.186625; stroke: rgb(255, 224, 224);"></path><path class="link" marker-end="" d="M919,231, 1142,477" style="stroke-width: 1.93444; stroke-opacity: 0.96722; stroke: rgb(8, 115, 255);"></path><path class="link" marker-end="" d="M919,272, 1142,313" style="stroke-width: 1.29487; stroke-opacity: 0.647435; stroke: rgb(254, 147, 147);"></path><path class="link" marker-end="" d="M919,272, 1142,354" style="stroke-width: 0.965151; stroke-opacity: 0.482576; stroke: rgb(132, 185, 255);"></path><path class="link" marker-end="" d="M919,272, 1142,395" style="stroke-width: 1.40526; stroke-opacity: 0.702629; stroke: rgb(76, 153, 255);"></path><path class="link" marker-end="" d="M919,272, 1142,436" style="stroke-width: 0.481207; stroke-opacity: 0.240604; stroke: rgb(255, 215, 215);"></path><path class="link" marker-end="" d="M919,272, 1142,477" style="stroke-width: 0.642025; stroke-opacity: 0.321013; stroke: rgb(173, 208, 255);"></path><path class="link" marker-end="" d="M919,313, 1142,313" style="stroke-width: 0.479106; stroke-opacity: 0.239553; stroke: rgb(255, 215, 215);"></path><path class="link" marker-end="" d="M919,313, 1142,354" style="stroke-width: 0.943696; stroke-opacity: 0.471848; stroke: rgb(255, 176, 176);"></path><path class="link" marker-end="" d="M919,313, 1142,395" style="stroke-width: 0.255837; stroke-opacity: 0.127919; stroke: rgb(222, 236, 255);"></path><path class="link" marker-end="" d="M919,313, 1142,436" style="stroke-width: 0.849395; stroke-opacity: 0.424697; stroke: rgb(147, 193, 255);"></path><path class="link" marker-end="" d="M919,313, 1142,477" style="stroke-width: 0.0155781; stroke-opacity: 0.00778905; stroke: rgb(253, 254, 255);"></path><path class="link" marker-end="" d="M919,354, 1142,313" style="stroke-width: 1.05802; stroke-opacity: 0.529011; stroke: rgb(120, 178, 255);"></path><path class="link" marker-end="" d="M919,354, 1142,354" style="stroke-width: 0.843044; stroke-opacity: 0.421522; stroke: rgb(148, 194, 255);"></path><path class="link" marker-end="" d="M919,354, 1142,395" style="stroke-width: 1.91727; stroke-opacity: 0.958634; stroke: rgb(254, 95, 95);"></path><path class="link" marker-end="" d="M919,354, 1142,436" style="stroke-width: 0.579828; stroke-opacity: 0.289914; stroke: rgb(181, 213, 255);"></path><path class="link" marker-end="" d="M919,354, 1142,477" style="stroke-width: 0.460033; stroke-opacity: 0.230017; stroke: rgb(196, 222, 255);"></path><path class="link" marker-end="" d="M919,395, 1142,313" style="stroke-width: 0.49661; stroke-opacity: 0.248305; stroke: rgb(255, 214, 214);"></path><path class="link" marker-end="" d="M919,395, 1142,354" style="stroke-width: 1.55131; stroke-opacity: 0.775656; stroke: rgb(57, 143, 255);"></path><path class="link" marker-end="" d="M919,395, 1142,395" style="stroke-width: 0.982194; stroke-opacity: 0.491097; stroke: rgb(130, 184, 255);"></path><path class="link" marker-end="" d="M919,395, 1142,436" style="stroke-width: 0.356612; stroke-opacity: 0.178306; stroke: rgb(255, 225, 225);"></path><path class="link" marker-end="" d="M919,395, 1142,477" style="stroke-width: 0.824932; stroke-opacity: 0.412466; stroke: rgb(255, 186, 186);"></path><path class="link" marker-end="" d="M919,436, 1142,313" style="stroke-width: 0.894213; stroke-opacity: 0.447106; stroke: rgb(141, 190, 255);"></path><path class="link" marker-end="" d="M919,436, 1142,354" style="stroke-width: 0.419583; stroke-opacity: 0.209792; stroke: rgb(202, 225, 255);"></path><path class="link" marker-end="" d="M919,436, 1142,395" style="stroke-width: 0.80728; stroke-opacity: 0.40364; stroke: rgb(255, 188, 188);"></path><path class="link" marker-end="" d="M919,436, 1142,436" style="stroke-width: 1.04667; stroke-opacity: 0.523333; stroke: rgb(254, 168, 168);"></path><path class="link" marker-end="" d="M919,436, 1142,477" style="stroke-width: 0.594758; stroke-opacity: 0.297379; stroke: rgb(179, 212, 255);"></path><path class="link" marker-end="" d="M919,477, 1142,313" style="stroke-width: 1.19049; stroke-opacity: 0.595243; stroke: rgb(103, 169, 255);"></path><path class="link" marker-end="" d="M919,477, 1142,354" style="stroke-width: 0.835292; stroke-opacity: 0.417646; stroke: rgb(255, 185, 185);"></path><path class="link" marker-end="" d="M919,477, 1142,395" style="stroke-width: 1.36229; stroke-opacity: 0.681143; stroke: rgb(81, 156, 255);"></path><path class="link" marker-end="" d="M919,477, 1142,436" style="stroke-width: 1.99463; stroke-opacity: 0.997316; stroke: rgb(1, 110, 255);"></path><path class="link" marker-end="" d="M919,477, 1142,477" style="stroke-width: 0.392185; stroke-opacity: 0.196093; stroke: rgb(205, 227, 255);"></path><path class="link" marker-end="" d="M919,518, 1142,313" style="stroke-width: 0.268734; stroke-opacity: 0.134367; stroke: rgb(221, 236, 255);"></path><path class="link" marker-end="" d="M919,518, 1142,354" style="stroke-width: 1.38841; stroke-opacity: 0.694207; stroke: rgb(78, 154, 255);"></path><path class="link" marker-end="" d="M919,518, 1142,395" style="stroke-width: 0.32102; stroke-opacity: 0.16051; stroke: rgb(255, 228, 228);"></path><path class="link" marker-end="" d="M919,518, 1142,436" style="stroke-width: 0.528939; stroke-opacity: 0.264469; stroke: rgb(188, 217, 255);"></path><path class="link" marker-end="" d="M919,518, 1142,477" style="stroke-width: 1.1768; stroke-opacity: 0.588399; stroke: rgb(254, 157, 157);"></path><path class="link" marker-end="" d="M1142,272, 1365,411.5" style="stroke-width: 1.71196; stroke-opacity: 0.855978; stroke: rgb(37, 131, 255);"></path><path class="link" marker-end="" d="M1142,313, 1365,411.5" style="stroke-width: 1.15708; stroke-opacity: 0.578541; stroke: rgb(254, 158, 158);"></path><path class="link" marker-end="" d="M1142,354, 1365,411.5" style="stroke-width: 1.2169; stroke-opacity: 0.60845; stroke: rgb(254, 153, 153);"></path><path class="link" marker-end="" d="M1142,395, 1365,411.5" style="stroke-width: 1.55467; stroke-opacity: 0.777337; stroke: rgb(57, 142, 255);"></path><path class="link" marker-end="" d="M1142,436, 1365,411.5" style="stroke-width: 0.897359; stroke-opacity: 0.44868; stroke: rgb(141, 190, 255);"></path><path class="link" marker-end="" d="M1142,477, 1365,411.5" style="stroke-width: 1.42481; stroke-opacity: 0.712403; stroke: rgb(73, 152, 255);"></path><path class="link" marker-end="" d="M1142,272, 1365,456.5" style="stroke-width: 0.187115; stroke-opacity: 0.0935573; stroke: rgb(255, 239, 239);"></path><path class="link" marker-end="" d="M1142,272, 1365,501.5" style="stroke-width: 0.0935731; stroke-opacity: 0.0467866; stroke: rgb(243, 248, 255);"></path><path class="link" marker-end="" d="M1142,313, 1365,456.5" style="stroke-width: 0.310704; stroke-opacity: 0.155352; stroke: rgb(255, 229, 229);"></path><path class="link" marker-end="" d="M1142,313, 1365,501.5" style="stroke-width: 1.47863; stroke-opacity: 0.739316; stroke: rgb(254, 132, 132);"></path><path class="link" marker-end="" d="M1142,354, 1365,456.5" style="stroke-width: 1.43659; stroke-opacity: 0.718297; stroke: rgb(72, 151, 255);"></path><path class="link" marker-end="" d="M1142,354, 1365,501.5" style="stroke-width: 1.57894; stroke-opacity: 0.789471; stroke: rgb(54, 141, 255);"></path><path class="link" marker-end="" d="M1142,395, 1365,456.5" style="stroke-width: 0.0680392; stroke-opacity: 0.0340196; stroke: rgb(246, 250, 255);"></path><path class="link" marker-end="" d="M1142,395, 1365,501.5" style="stroke-width: 1.56043; stroke-opacity: 0.780216; stroke: rgb(56, 142, 255);"></path><path class="link" marker-end="" d="M1142,436, 1365,456.5" style="stroke-width: 0.26863; stroke-opacity: 0.134315; stroke: rgb(255, 233, 233);"></path><path class="link" marker-end="" d="M1142,436, 1365,501.5" style="stroke-width: 0.708194; stroke-opacity: 0.354097; stroke: rgb(255, 196, 196);"></path><path class="link" marker-end="" d="M1142,477, 1365,456.5" style="stroke-width: 1.99151; stroke-opacity: 0.995756; stroke: rgb(254, 89, 89);"></path><path class="link" marker-end="" d="M1142,477, 1365,501.5" style="stroke-width: 1.57179; stroke-opacity: 0.785893; stroke: rgb(254, 124, 124);"></path><path class="link" marker-end="" d="M696,410.5, 919,231" style="stroke-width: 1.55893; stroke-opacity: 0.779464; stroke: rgb(56, 142, 255);"></path><path class="link" marker-end="" d="M696,456.5, 919,231" style="stroke-width: 0.438939; stroke-opacity: 0.219469; stroke: rgb(199, 223, 255);"></path><path class="link" marker-end="" d="M696,502.5, 919,231" style="stroke-width: 1.8625; stroke-opacity: 0.931249; stroke: rgb(18, 120, 255);"></path><path class="link" marker-end="" d="M919,231, 1142,272" style="stroke-width: 0.336241; stroke-opacity: 0.168121; stroke: rgb(255, 227, 227);"></path><path class="link" marker-end="" d="M919,272, 1142,272" style="stroke-width: 0.00710664; stroke-opacity: 0.00355332; stroke: rgb(255, 254, 254);"></path><path class="link" marker-end="" d="M919,313, 1142,272" style="stroke-width: 0.4686; stroke-opacity: 0.2343; stroke: rgb(195, 221, 255);"></path><path class="link" marker-end="" d="M919,354, 1142,272" style="stroke-width: 1.75306; stroke-opacity: 0.876532; stroke: rgb(31, 128, 255);"></path><path class="link" marker-end="" d="M919,395, 1142,272" style="stroke-width: 1.40644; stroke-opacity: 0.703222; stroke: rgb(76, 153, 255);"></path><path class="link" marker-end="" d="M919,436, 1142,272" style="stroke-width: 0.249315; stroke-opacity: 0.124658; stroke: rgb(255, 234, 234);"></path><path class="link" marker-end="" d="M919,477, 1142,272" style="stroke-width: 0.240884; stroke-opacity: 0.120442; stroke: rgb(255, 235, 235);"></path><path class="link" marker-end="" d="M919,518, 1142,272" style="stroke-width: 1.93279; stroke-opacity: 0.966396; stroke: rgb(9, 115, 255);"></path><path class="link" marker-end="" d="M696,410.5, 919,559" style="stroke-width: 0.754605; stroke-opacity: 0.377303; stroke: rgb(255, 192, 192);"></path><path class="link" marker-end="" d="M696,456.5, 919,559" style="stroke-width: 0.173669; stroke-opacity: 0.0868347; stroke: rgb(233, 242, 255);"></path><path class="link" marker-end="" d="M696,502.5, 919,559" style="stroke-width: 0.114959; stroke-opacity: 0.0574793; stroke: rgb(240, 247, 255);"></path><path class="link" marker-end="" d="M919,559, 1142,272" style="stroke-width: 0.340353; stroke-opacity: 0.170177; stroke: rgb(255, 227, 227);"></path><path class="link" marker-end="" d="M919,559, 1142,313" style="stroke-width: 0.313367; stroke-opacity: 0.156684; stroke: rgb(215, 232, 255);"></path><path class="link" marker-end="" d="M919,559, 1142,354" style="stroke-width: 0.538372; stroke-opacity: 0.269186; stroke: rgb(255, 210, 210);"></path><path class="link" marker-end="" d="M919,559, 1142,395" style="stroke-width: 0.202619; stroke-opacity: 0.101309; stroke: rgb(255, 238, 238);"></path><path class="link" marker-end="" d="M919,559, 1142,436" style="stroke-width: 0.441107; stroke-opacity: 0.220554; stroke: rgb(255, 218, 218);"></path><path class="link" marker-end="" d="M919,559, 1142,477" style="stroke-width: 1.33851; stroke-opacity: 0.669256; stroke: rgb(84, 158, 255);"></path><path class="link" marker-end="" d="M696,410.5, 919,600" style="stroke-width: 1.73731; stroke-opacity: 0.868654; stroke: rgb(33, 129, 255);"></path><path class="link" marker-end="" d="M696,456.5, 919,600" style="stroke-width: 1.25922; stroke-opacity: 0.629612; stroke: rgb(254, 150, 150);"></path><path class="link" marker-end="" d="M696,502.5, 919,600" style="stroke-width: 0.103478; stroke-opacity: 0.0517392; stroke: rgb(242, 247, 255);"></path><path class="link" marker-end="" d="M919,600, 1142,272" style="stroke-width: 1.63857; stroke-opacity: 0.819287; stroke: rgb(46, 136, 255);"></path><path class="link" marker-end="" d="M919,600, 1142,313" style="stroke-width: 0.258962; stroke-opacity: 0.129481; stroke: rgb(222, 236, 255);"></path><path class="link" marker-end="" d="M919,600, 1142,354" style="stroke-width: 1.77182; stroke-opacity: 0.885912; stroke: rgb(254, 107, 107);"></path><path class="link" marker-end="" d="M919,600, 1142,395" style="stroke-width: 1.55979; stroke-opacity: 0.779896; stroke: rgb(56, 142, 255);"></path><path class="link" marker-end="" d="M919,600, 1142,436" style="stroke-width: 0.577794; stroke-opacity: 0.288897; stroke: rgb(181, 213, 255);"></path><path class="link" marker-end="" d="M919,600, 1142,477" style="stroke-width: 0.955355; stroke-opacity: 0.477677; stroke: rgb(255, 175, 175);"></path><path class="link" marker-end="" d="M696,410.5, 919,641" style="stroke-width: 0.632642; stroke-opacity: 0.316321; stroke: rgb(174, 209, 255);"></path><path class="link" marker-end="" d="M696,456.5, 919,641" style="stroke-width: 1.36411; stroke-opacity: 0.682056; stroke: rgb(81, 156, 255);"></path><path class="link" marker-end="" d="M696,502.5, 919,641" style="stroke-width: 1.66389; stroke-opacity: 0.831946; stroke: rgb(43, 134, 255);"></path><path class="link" marker-end="" d="M919,641, 1142,272" style="stroke-width: 0.883736; stroke-opacity: 0.441868; stroke: rgb(255, 181, 181);"></path><path class="link" marker-end="" d="M919,641, 1142,313" style="stroke-width: 0.126132; stroke-opacity: 0.0630662; stroke: rgb(239, 246, 255);"></path><path class="link" marker-end="" d="M919,641, 1142,354" style="stroke-width: 1.5457; stroke-opacity: 0.77285; stroke: rgb(254, 126, 126);"></path><path class="link" marker-end="" d="M919,641, 1142,395" style="stroke-width: 1.80701; stroke-opacity: 0.903504; stroke: rgb(25, 124, 255);"></path><path class="link" marker-end="" d="M919,641, 1142,436" style="stroke-width: 1.69499; stroke-opacity: 0.847497; stroke: rgb(39, 132, 255);"></path><path class="link" marker-end="" d="M919,641, 1142,477" style="stroke-width: 1.92357; stroke-opacity: 0.961787; stroke: rgb(254, 94, 94);"></path><path class="link" marker-end="" d="M696,410.5, 919,682" style="stroke-width: 0.717343; stroke-opacity: 0.358671; stroke: rgb(164, 203, 255);"></path><path class="link" marker-end="" d="M696,456.5, 919,682" style="stroke-width: 1.43435; stroke-opacity: 0.717176; stroke: rgb(254, 135, 135);"></path><path class="link" marker-end="" d="M696,502.5, 919,682" style="stroke-width: 1.73382; stroke-opacity: 0.866909; stroke: rgb(34, 129, 255);"></path><path class="link" marker-end="" d="M919,682, 1142,272" style="stroke-width: 1.82773; stroke-opacity: 0.913863; stroke: rgb(22, 122, 255);"></path><path class="link" marker-end="" d="M919,682, 1142,313" style="stroke-width: 0.366001; stroke-opacity: 0.183001; stroke: rgb(255, 224, 224);"></path><path class="link" marker-end="" d="M919,682, 1142,354" style="stroke-width: 0.750229; stroke-opacity: 0.375114; stroke: rgb(255, 192, 192);"></path><path class="link" marker-end="" d="M919,682, 1142,395" style="stroke-width: 1.7338; stroke-opacity: 0.866902; stroke: rgb(34, 129, 255);"></path><path class="link" marker-end="" d="M919,682, 1142,436" style="stroke-width: 0.498074; stroke-opacity: 0.249037; stroke: rgb(191, 219, 255);"></path><path class="link" marker-end="" d="M919,682, 1142,477" style="stroke-width: 1.48263; stroke-opacity: 0.741317; stroke: rgb(66, 148, 255);"></path><path class="link" marker-end="" d="M919,231, 1142,518" style="stroke-width: 0.358259; stroke-opacity: 0.179129; stroke: rgb(209, 229, 255);"></path><path class="link" marker-end="" d="M919,272, 1142,518" style="stroke-width: 1.4667; stroke-opacity: 0.733351; stroke: rgb(68, 149, 255);"></path><path class="link" marker-end="" d="M919,313, 1142,518" style="stroke-width: 0.47418; stroke-opacity: 0.23709; stroke: rgb(195, 221, 255);"></path><path class="link" marker-end="" d="M919,354, 1142,518" style="stroke-width: 1.71235; stroke-opacity: 0.856176; stroke: rgb(37, 131, 255);"></path><path class="link" marker-end="" d="M919,395, 1142,518" style="stroke-width: 0.412077; stroke-opacity: 0.206038; stroke: rgb(202, 225, 255);"></path><path class="link" marker-end="" d="M919,436, 1142,518" style="stroke-width: 0.156107; stroke-opacity: 0.0780537; stroke: rgb(235, 244, 255);"></path><path class="link" marker-end="" d="M919,477, 1142,518" style="stroke-width: 1.48062; stroke-opacity: 0.740312; stroke: rgb(254, 131, 131);"></path><path class="link" marker-end="" d="M919,518, 1142,518" style="stroke-width: 1.94494; stroke-opacity: 0.972469; stroke: rgb(254, 93, 93);"></path><path class="link" marker-end="" d="M919,559, 1142,518" style="stroke-width: 1.95499; stroke-opacity: 0.977493; stroke: rgb(6, 113, 255);"></path><path class="link" marker-end="" d="M919,600, 1142,518" style="stroke-width: 0.845283; stroke-opacity: 0.422642; stroke: rgb(147, 194, 255);"></path><path class="link" marker-end="" d="M919,641, 1142,518" style="stroke-width: 0.34914; stroke-opacity: 0.17457; stroke: rgb(210, 230, 255);"></path><path class="link" marker-end="" d="M919,682, 1142,518" style="stroke-width: 1.34433; stroke-opacity: 0.672165; stroke: rgb(254, 143, 143);"></path><path class="link" marker-end="" d="M1142,518, 1365,411.5" style="stroke-width: 1.49028; stroke-opacity: 0.745142; stroke: rgb(254, 131, 131);"></path><path class="link" marker-end="" d="M1142,518, 1365,456.5" style="stroke-width: 0.84836; stroke-opacity: 0.42418; stroke: rgb(147, 193, 255);"></path><path class="link" marker-end="" d="M1142,518, 1365,501.5" style="stroke-width: 0.876913; stroke-opacity: 0.438456; stroke: rgb(143, 191, 255);"></path><path class="link" marker-end="" d="M919,231, 1142,559" style="stroke-width: 0.956542; stroke-opacity: 0.478271; stroke: rgb(133, 186, 255);"></path><path class="link" marker-end="" d="M919,272, 1142,559" style="stroke-width: 0.6457; stroke-opacity: 0.32285; stroke: rgb(173, 208, 255);"></path><path class="link" marker-end="" d="M919,313, 1142,559" style="stroke-width: 1.43594; stroke-opacity: 0.717969; stroke: rgb(254, 135, 135);"></path><path class="link" marker-end="" d="M919,354, 1142,559" style="stroke-width: 0.726353; stroke-opacity: 0.363177; stroke: rgb(255, 194, 194);"></path><path class="link" marker-end="" d="M919,395, 1142,559" style="stroke-width: 0.459551; stroke-opacity: 0.229775; stroke: rgb(196, 222, 255);"></path><path class="link" marker-end="" d="M919,436, 1142,559" style="stroke-width: 0.82124; stroke-opacity: 0.41062; stroke: rgb(255, 186, 186);"></path><path class="link" marker-end="" d="M919,477, 1142,559" style="stroke-width: 0.071333; stroke-opacity: 0.0356665; stroke: rgb(255, 249, 249);"></path><path class="link" marker-end="" d="M919,518, 1142,559" style="stroke-width: 0.518865; stroke-opacity: 0.259432; stroke: rgb(189, 217, 255);"></path><path class="link" marker-end="" d="M919,559, 1142,559" style="stroke-width: 1.90803; stroke-opacity: 0.954014; stroke: rgb(12, 117, 255);"></path><path class="link" marker-end="" d="M919,600, 1142,559" style="stroke-width: 1.53217; stroke-opacity: 0.766087; stroke: rgb(254, 127, 127);"></path><path class="link" marker-end="" d="M919,641, 1142,559" style="stroke-width: 0.646467; stroke-opacity: 0.323234; stroke: rgb(255, 201, 201);"></path><path class="link" marker-end="" d="M919,682, 1142,559" style="stroke-width: 0.393546; stroke-opacity: 0.196773; stroke: rgb(255, 222, 222);"></path><path class="link" marker-end="" d="M1142,559, 1365,411.5" style="stroke-width: 0.776874; stroke-opacity: 0.388437; stroke: rgb(255, 190, 190);"></path><path class="link" marker-end="" d="M1142,559, 1365,456.5" style="stroke-width: 1.87685; stroke-opacity: 0.938425; stroke: rgb(16, 119, 255);"></path><path class="link" marker-end="" d="M1142,559, 1365,501.5" style="stroke-width: 1.97814; stroke-opacity: 0.989068; stroke: rgb(254, 90, 90);"></path><path class="link" marker-end="" d="M919,231, 1142,600" style="stroke-width: 0.227182; stroke-opacity: 0.113591; stroke: rgb(255, 236, 236);"></path><path class="link" marker-end="" d="M919,272, 1142,600" style="stroke-width: 0.122748; stroke-opacity: 0.0613739; stroke: rgb(255, 245, 245);"></path><path class="link" marker-end="" d="M919,313, 1142,600" style="stroke-width: 1.56615; stroke-opacity: 0.783073; stroke: rgb(55, 141, 255);"></path><path class="link" marker-end="" d="M919,354, 1142,600" style="stroke-width: 0.779122; stroke-opacity: 0.389561; stroke: rgb(156, 199, 255);"></path><path class="link" marker-end="" d="M919,395, 1142,600" style="stroke-width: 0.876634; stroke-opacity: 0.438317; stroke: rgb(255, 182, 182);"></path><path class="link" marker-end="" d="M919,436, 1142,600" style="stroke-width: 0.25058; stroke-opacity: 0.12529; stroke: rgb(223, 237, 255);"></path><path class="link" marker-end="" d="M919,477, 1142,600" style="stroke-width: 1.91389; stroke-opacity: 0.956944; stroke: rgb(254, 95, 95);"></path><path class="link" marker-end="" d="M919,518, 1142,600" style="stroke-width: 0.906109; stroke-opacity: 0.453054; stroke: rgb(139, 189, 255);"></path><path class="link" marker-end="" d="M919,559, 1142,600" style="stroke-width: 1.43417; stroke-opacity: 0.717083; stroke: rgb(254, 135, 135);"></path><path class="link" marker-end="" d="M919,600, 1142,600" style="stroke-width: 0.57583; stroke-opacity: 0.287915; stroke: rgb(182, 213, 255);"></path><path class="link" marker-end="" d="M919,641, 1142,600" style="stroke-width: 0.1477; stroke-opacity: 0.0738502; stroke: rgb(236, 244, 255);"></path><path class="link" marker-end="" d="M919,682, 1142,600" style="stroke-width: 1.61848; stroke-opacity: 0.809238; stroke: rgb(49, 138, 255);"></path><path class="link" marker-end="" d="M1142,600, 1365,411.5" style="stroke-width: 1.7126; stroke-opacity: 0.856301; stroke: rgb(254, 112, 112);"></path><path class="link" marker-end="" d="M1142,600, 1365,456.5" style="stroke-width: 0.000369346; stroke-opacity: 0.000184673; stroke: rgb(255, 255, 255);"></path><path class="link" marker-end="" d="M1142,600, 1365,501.5" style="stroke-width: 0.490527; stroke-opacity: 0.245264; stroke: rgb(255, 214, 214);"></path><path class="link" marker-end="" d="M919,231, 1142,641" style="stroke-width: 0.930746; stroke-opacity: 0.465373; stroke: rgb(255, 177, 177);"></path><path class="link" marker-end="" d="M919,272, 1142,641" style="stroke-width: 1.39794; stroke-opacity: 0.698969; stroke: rgb(254, 138, 138);"></path><path class="link" marker-end="" d="M919,313, 1142,641" style="stroke-width: 1.10297; stroke-opacity: 0.551487; stroke: rgb(254, 163, 163);"></path><path class="link" marker-end="" d="M919,354, 1142,641" style="stroke-width: 1.22986; stroke-opacity: 0.614932; stroke: rgb(254, 152, 152);"></path><path class="link" marker-end="" d="M919,395, 1142,641" style="stroke-width: 0.323165; stroke-opacity: 0.161582; stroke: rgb(214, 232, 255);"></path><path class="link" marker-end="" d="M919,436, 1142,641" style="stroke-width: 0.42049; stroke-opacity: 0.210245; stroke: rgb(201, 225, 255);"></path><path class="link" marker-end="" d="M919,477, 1142,641" style="stroke-width: 0.408585; stroke-opacity: 0.204293; stroke: rgb(203, 225, 255);"></path><path class="link" marker-end="" d="M919,518, 1142,641" style="stroke-width: 1.33874; stroke-opacity: 0.66937; stroke: rgb(84, 158, 255);"></path><path class="link" marker-end="" d="M919,559, 1142,641" style="stroke-width: 0.167539; stroke-opacity: 0.0837696; stroke: rgb(255, 241, 241);"></path><path class="link" marker-end="" d="M919,600, 1142,641" style="stroke-width: 0.0433012; stroke-opacity: 0.0216506; stroke: rgb(255, 251, 251);"></path><path class="link" marker-end="" d="M919,641, 1142,641" style="stroke-width: 0.683361; stroke-opacity: 0.341681; stroke: rgb(168, 205, 255);"></path><path class="link" marker-end="" d="M919,682, 1142,641" style="stroke-width: 0.314504; stroke-opacity: 0.157252; stroke: rgb(215, 232, 255);"></path><path class="link" marker-end="" d="M1142,641, 1365,411.5" style="stroke-width: 0.798276; stroke-opacity: 0.399138; stroke: rgb(255, 188, 188);"></path><path class="link" marker-end="" d="M1142,641, 1365,456.5" style="stroke-width: 1.2451; stroke-opacity: 0.622549; stroke: rgb(96, 165, 255);"></path><path class="link" marker-end="" d="M1142,641, 1365,501.5" style="stroke-width: 0.237772; stroke-opacity: 0.118886; stroke: rgb(225, 238, 255);"></path><circle r="12.5" class="node" id="0_0" cx="696" cy="410.5" style="fill: rgb(0, 98, 255); stroke: rgb(51, 51, 51);"></circle><circle r="12.5" class="node" id="0_1" cx="696" cy="456.5" style="fill: rgb(0, 98, 255); stroke: rgb(51, 51, 51);"></circle><circle r="12.5" class="node" id="0_2" cx="696" cy="502.5" style="fill: rgb(0, 98, 255); stroke: rgb(51, 51, 51);"></circle><circle r="12.5" class="node" id="1_0" cx="919" cy="231" style="fill: rgb(0, 98, 255); stroke: rgb(51, 51, 51);"></circle><circle r="12.5" class="node" id="1_1" cx="919" cy="272" style="fill: rgb(0, 98, 255); stroke: rgb(51, 51, 51);"></circle><circle r="12.5" class="node" id="1_2" cx="919" cy="313" style="fill: rgb(0, 98, 255); stroke: rgb(51, 51, 51);"></circle><circle r="12.5" class="node" id="1_3" cx="919" cy="354" style="fill: rgb(0, 98, 255); stroke: rgb(51, 51, 51);"></circle><circle r="12.5" class="node" id="1_4" cx="919" cy="395" style="fill: rgb(0, 98, 255); stroke: rgb(51, 51, 51);"></circle><circle r="12.5" class="node" id="1_5" cx="919" cy="436" style="fill: rgb(0, 98, 255); stroke: rgb(51, 51, 51);"></circle><circle r="12.5" class="node" id="1_6" cx="919" cy="477" style="fill: rgb(0, 98, 255); stroke: rgb(51, 51, 51);"></circle><circle r="12.5" class="node" id="1_7" cx="919" cy="518" style="fill: rgb(0, 98, 255); stroke: rgb(51, 51, 51);"></circle><circle r="12.5" class="node" id="1_8" cx="919" cy="559" style="fill: rgb(0, 98, 255); stroke: rgb(51, 51, 51);"></circle><circle r="12.5" class="node" id="1_9" cx="919" cy="600" style="fill: rgb(0, 98, 255); stroke: rgb(51, 51, 51);"></circle><circle r="12.5" class="node" id="1_10" cx="919" cy="641" style="fill: rgb(0, 98, 255); stroke: rgb(51, 51, 51);"></circle><circle r="12.5" class="node" id="1_11" cx="919" cy="682" style="fill: rgb(0, 98, 255); stroke: rgb(51, 51, 51);"></circle><circle r="12.5" class="node" id="2_0" cx="1142" cy="272" style="fill: rgb(0, 98, 255); stroke: rgb(51, 51, 51);"></circle><circle r="12.5" class="node" id="2_1" cx="1142" cy="313" style="fill: rgb(0, 98, 255); stroke: rgb(51, 51, 51);"></circle><circle r="12.5" class="node" id="2_2" cx="1142" cy="354" style="fill: rgb(0, 98, 255); stroke: rgb(51, 51, 51);"></circle><circle r="12.5" class="node" id="2_3" cx="1142" cy="395" style="fill: rgb(0, 98, 255); stroke: rgb(51, 51, 51);"></circle><circle r="12.5" class="node" id="2_4" cx="1142" cy="436" style="fill: rgb(0, 98, 255); stroke: rgb(51, 51, 51);"></circle><circle r="12.5" class="node" id="2_5" cx="1142" cy="477" style="fill: rgb(0, 98, 255); stroke: rgb(51, 51, 51);"></circle><circle r="12.5" class="node" id="2_6" cx="1142" cy="518" style="fill: rgb(0, 98, 255); stroke: rgb(51, 51, 51);"></circle><circle r="12.5" class="node" id="2_7" cx="1142" cy="559" style="fill: rgb(0, 98, 255); stroke: rgb(51, 51, 51);"></circle><circle r="12.5" class="node" id="2_8" cx="1142" cy="600" style="fill: rgb(0, 98, 255); stroke: rgb(51, 51, 51);"></circle><circle r="12.5" class="node" id="2_9" cx="1142" cy="641" style="fill: rgb(0, 98, 255); stroke: rgb(51, 51, 51);"></circle><circle r="12.5" class="node" id="3_0" cx="1365" cy="411.5" style="fill: rgb(0, 98, 255); stroke: rgb(51, 51, 51);"></circle><text class="text" dy=".35em" x="661" y="727" style="font-size: 12px;"></text><text class="text" dy=".35em" x="884" y="727" style="font-size: 12px;"></text><text class="text" dy=".35em" x="1107" y="727" style="font-size: 12px;"></text><text class="text" dy=".35em" x="1330" y="727" style="font-size: 12px;"></text><circle r="12.5" class="node" id="3_1" cx="1365" cy="456.5" style="fill: rgb(0, 98, 255); stroke: rgb(51, 51, 51);"></circle><circle r="12.5" class="node" id="3_2" cx="1365" cy="501.5" style="fill: rgb(0, 98, 255); stroke: rgb(51, 51, 51);"></circle></g><defs><marker id="arrow" viewBox="0 -5 10 10" markerWidth="7" markerHeight="7" orient="auto" refX="47"><path d="M0,-5L10,0L0,5" style="stroke: rgb(80, 80, 80); fill: none;"></path></marker></defs></svg>